<svg xmlns="http://www.w3.org/2000/svg" width="383.62579345703125" height="350.0757141113281" viewBox="-76.81246948242188 -81.47452545166016 383.62579345703125 350.0757141113281"><title>Neo4j Graph Visualization</title><desc>Created using Neo4j (http://www.neo4j.com/)</desc><g class="layer relationships"><g class="relationship" transform="translate(27.713596909371674 -10.618126093563593) rotate(380.36489528870675)"><path class="outline" fill="#A5ABB6" stroke="none" d="M 24.018736134675446,-6.953439040707552 L 24.277555179777966,-5.987513214418485 A 148.18081406312075 148.18081406312075 0 0 1 51.01942037313364,-10.581116884279766 L 50.94106912585253,-11.578042700000026 A 149.18081406312075 149.18081406312075 0 0 0 24.018736134675446,-6.953439040707552 Z M 70.3266201981481,-11.8379534314453 L 70.27502476834451,-10.839285362653953 A 148.18081406312075 148.18081406312075 0 0 1 97.13043232415082,-6.964284239181656 L 96.43194391529354,-4.046731507405925 L 104.05447009977041,-5.820736740477298 L 98.0617502026272,-10.854354548215964 L 97.36326179376992,-7.936801816440233 A 149.18081406312075 149.18081406312075 0 0 0 70.3266201981481,-11.8379534314453"/><text text-anchor="middle" pointer-events="none" font-size="8px" fill="#000000" x="60.63632111991314" y="-8.523290412135395" font-family="sans-serif">trek</text></g><g class="relationship" transform="translate(148.05745043332087 34.05343923345407) rotate(375.89387193264787)"><path class="outline" fill="#A5ABB6" stroke="none" d="M 21.40063509461097,-12.933012701892217 L 21.90063509461097,-12.06698729810778 A 88.15482849094495 88.15482849094495 0 0 1 52.8946071990771,-22.901203442141494 L 52.74619284259803,-23.890128706653883 A 89.15482849094495 89.15482849094495 0 0 0 21.40063509461097,-12.933012701892217 Z M 74.81843924553102,-24.43811568725586 L 74.7192815212094,-23.443043958330065 A 88.15482849094495 88.15482849094495 0 0 1 106.2126992485037,-14.160200314154535 L 104.84347249380971,-11.490889898667007 L 112.66929467709025,-11.410222955783173 L 108.038334921429,-17.719280868137904 L 106.66910816673501,-15.049970452650376 A 89.15482849094495 89.15482849094495 0 0 0 74.81843924553102,-24.43811568725586"/><text text-anchor="middle" pointer-events="none" font-size="8px" fill="#000000" x="63.77769666826173" y="-21.35018501332874" font-family="sans-serif">road</text></g><g class="relationship" transform="translate(277.8133352964618 71.00037164967526) rotate(217.69747111484315)"><path class="outline" fill="#A5ABB6" stroke="none" d="M 21.40063509461097,12.933012701892217 L 21.90063509461097,12.06698729810778 A 44.215033722021786 44.215033722021786 0 0 0 22.98863032560614,12.674859735425017 L 22.513237232791496,13.55463323315277 A 45.215033722021786 45.215033722021786 0 0 1 21.40063509461097,12.933012701892217 Z M 62.6225037046934,14.98128990908441 L 62.21081869161763,14.069963705132821 A 44.215033722021786 44.215033722021786 0 0 0 63.33925289648305,13.540928008787079 L 62.027633342211416,10.842844588124873 L 69.85338413707348,10.930162952263627 L 65.08807896884524,17.13837256967002 L 63.7764594145736,14.440289149007816 A 45.215033722021786 45.215033722021786 0 0 1 62.6225037046934,14.98128990908441"/><text text-anchor="middle" pointer-events="none" font-size="8px" fill="#000000" x="42.418676737559224" y="21.4624192993997" transform="rotate(180 42.418676737559224 18.4624192993997)" font-family="sans-serif">twowhe…</text></g><g class="relationship" transform="translate(204.7513092142106 14.536771708786578) rotate(466.684145996528)"><path class="outline" fill="#A5ABB6" stroke="none" d="M 25 0.5 L 59.88360485930727 0.5 L 59.88360485930727 -0.5 L 25 -0.5 Z M 79.21954235930727 0.5 L 114.10314721861454 0.5 L 114.10314721861454 3.5 L 121.10314721861454 0 L 114.10314721861454 -3.5 L 114.10314721861454 -0.5 L 79.21954235930727 -0.5 Z"/><text text-anchor="middle" pointer-events="none" font-size="8px" fill="#000000" x="69.55157360930727" y="3" transform="rotate(180 69.55157360930727 0)" font-family="sans-serif">trek</text></g><g class="relationship" transform="translate(27.713596909371674 -10.618126093563593) rotate(380.36489528870675)"><path class="outline" fill="#A5ABB6" stroke="none" d="M 24.018736134675446,6.953439040707552 L 24.277555179777966,5.987513214418485 A 148.18081406312075 148.18081406312075 0 0 0 49.69061602373036,10.470664696204125 L 49.60329732436846,11.466845124009126 A 149.18081406312075 149.18081406312075 0 0 1 24.018736134675446,6.953439040707552 Z M 71.66689234650947,11.7626615854102 L 71.60631270411272,10.764498218557293 A 148.18081406312075 148.18081406312075 0 0 0 97.13043232415082,6.964284239181656 L 96.43194391529354,4.046731507405925 L 104.05447009977041,5.820736740477298 L 98.0617502026272,10.854354548215964 L 97.36326179376992,7.936801816440233 A 149.18081406312075 149.18081406312075 0 0 1 71.66689234650947,11.7626615854102"/><text text-anchor="middle" pointer-events="none" font-size="8px" fill="#000000" x="60.63632111991321" y="14.523290412135395" font-family="sans-serif">road</text></g><g class="relationship" transform="translate(148.05745043332087 34.05343923345407) rotate(375.89387193264787)"><path class="outline" fill="#A5ABB6" stroke="none" d="M 25 0.5 L 54.288805319743176 0.5 L 54.288805319743176 -0.5 L 25 -0.5 Z M 73.62474281974318 0.5 L 102.91354813948635 0.5 L 102.91354813948635 3.5 L 109.91354813948635 0 L 102.91354813948635 -3.5 L 102.91354813948635 -0.5 L 73.62474281974318 -0.5 Z"/><text text-anchor="middle" pointer-events="none" font-size="8px" fill="#000000" x="63.956774069743176" y="3" font-family="sans-serif">trek</text></g><g class="relationship" transform="translate(148.05745043332087 34.05343923345407) rotate(375.89387193264787)"><path class="outline" fill="#A5ABB6" stroke="none" d="M 21.40063509461097,12.933012701892217 L 21.90063509461097,12.06698729810778 A 88.15482849094495 88.15482849094495 0 0 0 41.03394353256252,20.27481223170136 L 40.750985625043214,21.23394455967926 A 89.15482849094495 89.15482849094495 0 0 1 21.40063509461097,12.933012701892217 Z M 86.93067715845959,22.380446336914048 L 86.69566321504199,21.408454337770365 A 88.15482849094495 88.15482849094495 0 0 0 106.2126992485037,14.160200314154535 L 104.84347249380971,11.490889898667007 L 112.66929467709025,11.410222955783173 L 108.038334921429,17.719280868137904 L 106.66910816673501,15.049970452650376 A 89.15482849094495 89.15482849094495 0 0 1 86.93067715845959,22.380446336914048"/><text text-anchor="middle" pointer-events="none" font-size="8px" fill="#000000" x="63.77769666826176" y="27.35018501332874" font-family="sans-serif">twowheeler</text></g><g class="relationship" transform="translate(277.8133352964618 71.00037164967526) rotate(217.69747111484315)"><path class="outline" fill="#A5ABB6" stroke="none" d="M 25 0.5 L 33.000737571295915 0.5 L 33.000737571295915 -0.5 L 25 -0.5 Z M 52.336675071295915 0.5 L 60.33741264259183 0.5 L 60.33741264259183 3.5 L 67.33741264259183 0 L 60.33741264259183 -3.5 L 60.33741264259183 -0.5 L 52.336675071295915 -0.5 Z"/><text text-anchor="middle" pointer-events="none" font-size="8px" fill="#000000" x="42.668706321295915" y="3" transform="rotate(180 42.668706321295915 0)" font-family="sans-serif">trek</text></g><g class="relationship" transform="translate(277.8133352964618 71.00037164967526) rotate(217.69747111484315)"><path class="outline" fill="#A5ABB6" stroke="none" d="M 21.40063509461097,-12.933012701892217 L 21.90063509461097,-12.06698729810778 A 44.215033722021786 44.215033722021786 0 0 1 31.717384678174323,-16.24806234772015 L 31.439407568517026,-17.208650046218615 A 45.215033722021786 45.215033722021786 0 0 0 21.40063509461097,-12.933012701892217 Z M 53.459278260289786,-17.991880413883806 L 53.25025206863033,-17.01397037139506 A 44.215033722021786 44.215033722021786 0 0 1 63.33925289648305,-13.540928008787079 L 62.027633342211416,-10.842844588124873 L 69.85338413707348,-10.930162952263627 L 65.08807896884524,-17.13837256967002 L 63.7764594145736,-14.440289149007816 A 45.215033722021786 45.215033722021786 0 0 0 53.459278260289786,-17.991880413883806"/><text text-anchor="middle" pointer-events="none" font-size="8px" fill="#000000" x="42.41867673755923" y="-15.462419299399699" transform="rotate(180 42.41867673755923 -18.4624192993997)" font-family="sans-serif">road</text></g><g class="relationship" transform="translate(27.713596909371674 -10.618126093563593) rotate(329.5589060548419)"><path class="outline" fill="#A5ABB6" stroke="none" d="M 21.40063509461097,12.933012701892217 L 21.90063509461097,12.06698729810778 A 33.982687012832415 33.982687012832415 0 0 0 26.964664225835573,14.457899391076985 L 26.613682139849033,15.394281564826862 A 34.982687012832415 34.982687012832415 0 0 1 21.40063509461097,12.933012701892217 Z M 48.55027687445466,16.260110157576705 L 48.27418892643956,15.298977781178522 A 33.982687012832415 33.982687012832415 0 0 0 53.51090772750258,13.314632076219121 L 52.22034505472555,10.606413475803969 L 60.04517824060078,10.75468893980858 L 55.23165795787195,16.92559021010599 L 53.941095285094924,14.217371609690838 A 34.982687012832415 34.982687012832415 0 0 1 48.55027687445466,16.260110157576705"/><text text-anchor="middle" pointer-events="none" font-size="8px" fill="#000000" x="37.53201967305722" y="20.09297599680717" font-family="sans-serif">road</text></g><g class="relationship" transform="translate(98.93901147615894 -52.4745261436165) rotate(494.13723157195545)"><path class="outline" fill="#A5ABB6" stroke="none" d="M 24.018736134675446,-6.953439040707552 L 24.277555179777966,-5.987513214418485 A 192.68660488561267 192.68660488561267 0 0 1 62.29950083770679,-12.18848487152843 L 62.23800711099109,-13.186592341480747 A 193.68660488561267 193.68660488561267 0 0 0 24.018736134675446,-6.953439040707552 Z M 81.61461975426145,-13.40919742708357 L 81.57607242416421,-12.409940651603733 A 192.68660488561267 192.68660488561267 0 0 1 119.73044190881531,-7.084108290789305 L 119.02076221402454,-4.169257568916622 L 126.65004020898336,-5.91399745658965 L 120.67668150186965,-10.970575919952882 L 119.96700180707889,-8.0557251980802 A 193.68660488561267 193.68660488561267 0 0 0 81.61461975426145,-13.40919742708357"/><text text-anchor="middle" pointer-events="none" font-size="8px" fill="#000000" x="71.92927158939763" y="-10.0404027531321" transform="rotate(180 71.92927158939763 -13.0404027531321)" font-family="sans-serif">trek</text></g><g class="relationship" transform="translate(-6.17280208270981 55.85150945352029) rotate(420.4426622867145)"><path class="outline" fill="#A5ABB6" stroke="none" d="M 24.018736134675446,-6.953439040707552 L 24.277555179777966,-5.987513214418485 A 115.9360199025725 115.9360199025725 0 0 1 42.909269211187464,-9.378587883150544 L 42.81115702877582,-10.373763244412274 A 116.9360199025725 116.9360199025725 0 0 0 24.018736134675446,-6.953439040707552 Z M 62.20556919869815,-10.669314611183452 L 62.137826478693235,-9.671611787750365 A 115.9360199025725 115.9360199025725 0 0 1 80.86421809517334,-6.849837136336626 L 80.17641943759752,-3.929745869503193 L 87.79239749404732,-5.731655479798592 L 81.78128297194111,-10.743292158781204 L 81.09348431436528,-7.823200891947771 A 116.9360199025725 116.9360199025725 0 0 0 62.20556919869815,-10.669314611183452"/><text text-anchor="middle" pointer-events="none" font-size="8px" fill="#000000" x="52.509843110858995" y="-7.424419856726885" font-family="sans-serif">trek</text></g><g class="relationship" transform="translate(49.138557677878815 153.38613690241178) rotate(360.55603178126415)"><path class="outline" fill="#A5ABB6" stroke="none" d="M 24.018736134675446,6.953439040707552 L 24.277555179777966,5.987513214418485 A 119.01627882510996 119.01627882510996 0 0 0 30.33754489308832,7.442355381551749 L 30.129643165962236,8.420505100080561 A 120.01627882510996 120.01627882510996 0 0 1 24.018736134675446,6.953439040707552 Z M 76.49033625779505,9.117926006724005 L 76.31195127827036,8.133965235615733 A 119.01627882510996 119.01627882510996 0 0 0 82.41296037092826,6.86206543295812 L 81.72401951786706,3.9422434347905404 L 89.3407018421628,5.741173775509935 L 83.33154817500984,10.755161430514892 L 82.64260732194865,7.835339432347313 A 120.01627882510996 120.01627882510996 0 0 1 76.49033625779505,9.117926006724005"/><text text-anchor="middle" pointer-events="none" font-size="8px" fill="#000000" x="53.28351101150258" y="13.529373429243918" font-family="sans-serif">twowheeler</text></g><g class="relationship" transform="translate(27.713596909371674 -10.618126093563593) rotate(329.5589060548419)"><path class="outline" fill="#A5ABB6" stroke="none" d="M 25 0.5 L 28.138864538696865 0.5 L 28.138864538696865 -0.5 L 25 -0.5 Z M 47.474802038696865 0.5 L 50.61366657739373 0.5 L 50.61366657739373 3.5 L 57.61366657739373 0 L 50.61366657739373 -3.5 L 50.61366657739373 -0.5 L 47.474802038696865 -0.5 Z"/><text text-anchor="middle" pointer-events="none" font-size="8px" fill="#000000" x="37.806833288696865" y="3" font-family="sans-serif">trek</text></g><g class="relationship" transform="translate(27.713596909371674 -10.618126093563593) rotate(329.5589060548419)"><path class="outline" fill="#A5ABB6" stroke="none" d="M 21.40063509461097,-12.933012701892217 L 21.90063509461097,-12.06698729810778 A 33.982687012832415 33.982687012832415 0 0 1 22.588136705391562,-12.453350152462033 L 22.108367642707407,-13.33074495897229 A 34.982687012832415 34.982687012832415 0 0 0 21.40063509461097,-12.933012701892217 Z M 53.20421655834069,-14.558085639361103 L 52.795093098154126,-13.64560660161559 A 33.982687012832415 33.982687012832415 0 0 1 53.51090772750258,-13.314632076219121 L 52.22034505472555,-10.606413475803969 L 60.04517824060078,-10.75468893980858 L 55.23165795787195,-16.92559021010599 L 53.941095285094924,-14.217371609690838 A 34.982687012832415 34.982687012832415 0 0 0 53.20421655834069,-14.558085639361103"/><text text-anchor="middle" pointer-events="none" font-size="8px" fill="#000000" x="37.53201967305722" y="-14.09297599680717" font-family="sans-serif">Publi…</text></g><g class="relationship" transform="translate(98.93901147615894 -52.4745261436165) rotate(494.13723157195545)"><path class="outline" fill="#A5ABB6" stroke="none" d="M 24.018736134675446,6.953439040707552 L 24.277555179777966,5.987513214418485 A 192.68660488561267 192.68660488561267 0 0 0 48.83604854012896,10.883315588437199 L 48.704682533990564,11.874649524319153 A 193.68660488561267 193.68660488561267 0 0 1 24.018736134675446,6.953439040707552 Z M 95.17451260277842,12.408510663562424 L 95.06595582181322,11.414420413481253 A 192.68660488561267 192.68660488561267 0 0 0 119.73044190881531,7.084108290789305 L 119.02076221402454,4.169257568916622 L 126.65004020898336,5.91399745658965 L 120.67668150186965,10.970575919952882 L 119.96700180707889,8.0557251980802 A 193.68660488561267 193.68660488561267 0 0 1 95.17451260277842,12.408510663562424"/><text text-anchor="middle" pointer-events="none" font-size="8px" fill="#000000" x="71.92927158939763" y="16.0404027531321" transform="rotate(180 71.92927158939763 13.0404027531321)" font-family="sans-serif">twowheeler</text></g><g class="relationship" transform="translate(-6.17280208270981 55.85150945352029) rotate(420.4426622867145)"><path class="outline" fill="#A5ABB6" stroke="none" d="M 24.018736134675446,6.953439040707552 L 24.277555179777966,5.987513214418485 A 115.9360199025725 115.9360199025725 0 0 0 29.575708423568024,7.274424137173966 L 29.36258831869342,8.251450145475815 A 116.9360199025725 116.9360199025725 0 0 1 24.018736134675446,6.953439040707552 Z M 75.71256194080863,8.957777201630066 L 75.52931167442608,7.974710906881484 A 115.9360199025725 115.9360199025725 0 0 0 80.86421809517334,6.849837136336626 L 80.17641943759752,3.929745869503193 L 87.79239749404732,5.731655479798592 L 81.78128297194111,10.743292158781204 L 81.09348431436528,7.823200891947771 A 116.9360199025725 116.9360199025725 0 0 1 75.71256194080863,8.957777201630066"/><text text-anchor="middle" pointer-events="none" font-size="8px" fill="#000000" x="52.50984311085901" y="13.424419856726885" font-family="sans-serif">twowheeler</text></g><g class="relationship" transform="translate(98.93901147615894 -52.4745261436165) rotate(392.34622325495354)"><path class="outline" fill="#A5ABB6" stroke="none" d="M 25 0.5 L 49.45542223226312 0.5 L 49.45542223226312 -0.5 L 25 -0.5 Z M 68.79135973226312 0.5 L 93.24678196452624 0.5 L 93.24678196452624 3.5 L 100.24678196452624 0 L 93.24678196452624 -3.5 L 93.24678196452624 -0.5 L 68.79135973226312 -0.5 Z"/><text text-anchor="middle" pointer-events="none" font-size="8px" fill="#000000" x="59.12339098226312" y="3" font-family="sans-serif">trek</text></g><g class="relationship" transform="translate(49.138557677878815 153.38613690241178) rotate(360.55603178126415)"><path class="outline" fill="#A5ABB6" stroke="none" d="M 24.018736134675446,-6.953439040707552 L 24.277555179777966,-5.987513214418485 A 119.01627882510996 119.01627882510996 0 0 1 43.68094765126135,-9.495633123922616 L 43.585160022222475,-10.491034917231786 A 120.01627882510996 120.01627882510996 0 0 0 24.018736134675446,-6.953439040707552 Z M 62.97862668398133,-10.782777947807546 L 62.912824011674346,-9.784945292340083 A 119.01627882510996 119.01627882510996 0 0 1 82.41296037092826,-6.86206543295812 L 81.72401951786706,-3.9422434347905404 L 89.3407018421628,-5.741173775509935 L 83.33154817500984,-10.755161430514892 L 82.64260732194865,-7.835339432347313 A 120.01627882510996 120.01627882510996 0 0 0 62.97862668398133,-10.782777947807546"/><text text-anchor="middle" pointer-events="none" font-size="8px" fill="#000000" x="53.283511011502526" y="-7.529373429243918" font-family="sans-serif">trek</text></g><g class="relationship" transform="translate(98.93901147615894 -52.4745261436165) rotate(420.41816879279304)"><path class="outline" fill="#A5ABB6" stroke="none" d="M 25 0.5 L 36.580674040240936 0.5 L 36.580674040240936 -0.5 L 25 -0.5 Z M 55.916611540240936 0.5 L 67.49728558048187 0.5 L 67.49728558048187 3.5 L 74.49728558048187 0 L 67.49728558048187 -3.5 L 67.49728558048187 -0.5 L 55.916611540240936 -0.5 Z"/><text text-anchor="middle" pointer-events="none" font-size="8px" fill="#000000" x="46.248642790240936" y="3" font-family="sans-serif">trek</text></g><g class="relationship" transform="translate(-6.17280208270981 55.85150945352029) rotate(469.0966633972987)"><path class="outline" fill="#A5ABB6" stroke="none" d="M 24.018736134675446,-6.953439040707552 L 24.277555179777966,-5.987513214418485 A 146.01897550441055 146.01897550441055 0 0 1 50.473718247450265,-10.501790378322937 L 50.39430165998847,-11.498631893126543 A 147.01897550441055 147.01897550441055 0 0 0 24.018736134675446,-6.953439040707552 Z M 69.78037664313432,-11.760667929782471 L 69.72793219077704,-10.762044086978307 A 146.01897550441055 146.01897550441055 0 0 1 96.03653894408586,-6.957458895346893 L 95.3386880276538,-4.039753615776161 L 102.96082641582292,-5.815424303600533 L 96.96700683266195,-10.847732601441205 L 96.26915591622989,-7.9300273218704715 A 147.01897550441055 147.01897550441055 0 0 0 69.78037664313432,-11.760667929782471"/><text text-anchor="middle" pointer-events="none" font-size="8px" fill="#000000" x="60.0897727487844" y="-8.449606361544426" transform="rotate(180 60.0897727487844 -11.449606361544426)" font-family="sans-serif">trek</text></g><g class="relationship" transform="translate(-47.81246844253862 176.1223423635848) rotate(346.80193392545243)"><path class="outline" fill="#A5ABB6" stroke="none" d="M 21.40063509461097,12.933012701892217 L 21.90063509461097,12.06698729810778 A 51.773259679047264 51.773259679047264 0 0 0 35.29650259086823,17.473946959271537 L 35.05524363941918,18.44440773557612 A 52.773259679047264 52.773259679047264 0 0 1 21.40063509461097,12.933012701892217 Z M 57.101592641543675,19.174809826768993 L 56.92509553365122,18.19050866812617 A 51.773259679047264 51.773259679047264 0 0 0 70.64946376882129,13.682050472668577 L 69.32471433389597,10.99038947345916 L 77.15079767279748,11.039578624377715 L 72.41579634872173,17.270931804947796 L 71.0910469137964,14.57927080573838 A 52.773259679047264 52.773259679047264 0 0 1 57.101592641543675,19.174809826768993"/><text text-anchor="middle" pointer-events="none" font-size="8px" fill="#000000" x="46.05638597367502" y="22.47462445479126" font-family="sans-serif">road</text></g><g class="relationship" transform="translate(-6.17280208270981 55.85150945352029) rotate(469.0966633972987)"><path class="outline" fill="#A5ABB6" stroke="none" d="M 24.018736134675446,6.953439040707552 L 24.277555179777966,5.987513214418485 A 146.01897550441055 146.01897550441055 0 0 0 37.06715082342129,8.806435393073826 L 36.89592036466148,9.791666396439467 A 147.01897550441055 147.01897550441055 0 0 1 24.018736134675446,6.953439040707552 Z M 83.31996318924695,10.419166919256782 L 83.17542459394207,9.429667755807259 A 146.01897550441055 146.01897550441055 0 0 0 96.03653894408586,6.957458895346893 L 95.3386880276538,4.039753615776161 L 102.96082641582292,5.815424303600533 L 96.96700683266195,10.847732601441205 L 96.26915591622989,7.9300273218704715 A 147.01897550441055 147.01897550441055 0 0 1 83.31996318924695,10.419166919256782"/><text text-anchor="middle" pointer-events="none" font-size="8px" fill="#000000" x="60.08977274878443" y="14.449606361544426" transform="rotate(180 60.08977274878443 11.449606361544426)" font-family="sans-serif">twowheeler</text></g><g class="relationship" transform="translate(-47.81246844253862 176.1223423635848) rotate(346.80193392545243)"><path class="outline" fill="#A5ABB6" stroke="none" d="M 25 0.5 L 36.6226842497713 0.5 L 36.6226842497713 -0.5 L 25 -0.5 Z M 55.9586217497713 0.5 L 67.5813059995426 0.5 L 67.5813059995426 3.5 L 74.5813059995426 0 L 67.5813059995426 -3.5 L 67.5813059995426 -0.5 L 55.9586217497713 -0.5 Z"/><text text-anchor="middle" pointer-events="none" font-size="8px" fill="#000000" x="46.2906529997713" y="3" font-family="sans-serif">trek</text></g><g class="relationship" transform="translate(-47.81246844253862 176.1223423635848) rotate(346.80193392545243)"><path class="outline" fill="#A5ABB6" stroke="none" d="M 21.40063509461097,-12.933012701892217 L 21.90063509461097,-12.06698729810778 A 51.773259679047264 51.773259679047264 0 0 1 23.991574545568668,-13.21084623084667 L 23.531961020438512,-14.098965258633726 A 52.773259679047264 52.773259679047264 0 0 0 21.40063509461097,-12.933012701892217 Z M 68.88722261165583,-15.601598547693627 L 68.48739971259965,-14.68500613588219 A 51.773259679047264 51.773259679047264 0 0 1 70.64946376882129,-13.682050472668577 L 69.32471433389597,-10.99038947345916 L 77.15079767279748,-11.039578624377715 L 72.41579634872173,-17.270931804947796 L 71.0910469137964,-14.57927080573838 A 52.773259679047264 52.773259679047264 0 0 0 68.88722261165583,-15.601598547693627"/><text text-anchor="middle" pointer-events="none" font-size="8px" fill="#000000" x="46.05638597367502" y="-16.47462445479126" font-family="sans-serif">twowheeler</text></g><g class="relationship" transform="translate(-47.81246844253862 176.1223423635848) rotate(389.677515465812)"><path class="outline" fill="#A5ABB6" stroke="none" d="M 25 0.5 L 50.936838512733914 0.5 L 50.936838512733914 -0.5 L 25 -0.5 Z M 70.27277601273391 0.5 L 96.20961452546783 0.5 L 96.20961452546783 3.5 L 103.20961452546783 0 L 96.20961452546783 -3.5 L 96.20961452546783 -0.5 L 70.27277601273391 -0.5 Z"/><text text-anchor="middle" pointer-events="none" font-size="8px" fill="#000000" x="60.604807262733914" y="3" font-family="sans-serif">trek</text></g><g class="relationship" transform="translate(63.57936271862423 239.6011987437374) rotate(319.37849328135377)"><path class="outline" fill="#A5ABB6" stroke="none" d="M 25 0.5 L 52.196238991829006 0.5 L 52.196238991829006 -0.5 L 25 -0.5 Z M 71.532176491829 0.5 L 98.72841548365801 0.5 L 98.72841548365801 3.5 L 105.72841548365801 0 L 98.72841548365801 -3.5 L 98.72841548365801 -0.5 L 71.532176491829 -0.5 Z"/><text text-anchor="middle" pointer-events="none" font-size="8px" fill="#000000" x="61.864207741829006" y="3" font-family="sans-serif">trek</text></g></g><g class="layer nodes"><g class="node" transform="translate(27.713596909371674,-10.618126093563593)"><circle class="outline" cx="0" cy="0" r="25" fill="#F16667" stroke="#eb2728" stroke-width="2px"/><text text-anchor="middle" pointer-events="none" font-family="sans-serif" dy="1.5625" font-size="25" fill="#FFFFFF"/><text text-anchor="middle" pointer-events="none" x="0" y="5" font-size="10px" fill="#FFFFFF" font-family="sans-serif"> Darjeeling</text></g><g class="node" transform="translate(162.80575676449317,154.4892645657277)"><circle class="outline" cx="0" cy="0" r="25" fill="#D9C8AE" stroke="#c0a378" stroke-width="2px"/><text text-anchor="middle" pointer-events="none" font-family="sans-serif" dy="1.5625" font-size="25" fill="#2A2C34"/><text text-anchor="middle" pointer-events="none" x="0" y="5" font-size="10px" fill="#2A2C34" font-family="sans-serif"> Sandak…</text></g><g class="node" transform="translate(148.05745043332087,34.05343923345407)"><circle class="outline" cx="0" cy="0" r="25" fill="#8DCC93" stroke="#5db665" stroke-width="2px"/><text text-anchor="middle" pointer-events="none" font-family="sans-serif" dy="1.5625" font-size="25" fill="#2A2C34"/><text text-anchor="middle" pointer-events="none" x="0" y="5" font-size="10px" fill="#2A2C34" font-family="sans-serif"> Tumbling</text></g><g class="node" transform="translate(277.8133352964618,71.00037164967526)"><circle class="outline" cx="0" cy="0" r="25" fill="#8DCC93" stroke="#5db665" stroke-width="2px"/><text text-anchor="middle" pointer-events="none" font-family="sans-serif" dy="1.5625" font-size="25" fill="#2A2C34"/><text text-anchor="middle" pointer-events="none" x="0" y="5" font-size="10px" fill="#2A2C34" font-family="sans-serif"> Gairibus</text></g><g class="node" transform="translate(204.7513092142106,14.536771708786578)"><circle class="outline" cx="0" cy="0" r="25" fill="#8DCC93" stroke="#5db665" stroke-width="2px"/><text text-anchor="middle" pointer-events="none" font-family="sans-serif" dy="1.5625" font-size="25" fill="#2A2C34"/><text text-anchor="middle" pointer-events="none" x="0" y="5" font-size="10px" fill="#2A2C34" font-family="sans-serif"> BhikeBh…</text></g><g class="node" transform="translate(98.93901147615894,-52.4745261436165)"><circle class="outline" cx="0" cy="0" r="25" fill="#F16667" stroke="#eb2728" stroke-width="2px"/><text text-anchor="middle" pointer-events="none" font-family="sans-serif" dy="1.5625" font-size="25" fill="#FFFFFF"/><text text-anchor="middle" pointer-events="none" x="0" y="5" font-size="10px" fill="#FFFFFF" font-family="sans-serif"> Rimbik</text></g><g class="node" transform="translate(-6.17280208270981,55.85150945352029)"><circle class="outline" cx="0" cy="0" r="25" fill="#8DCC93" stroke="#5db665" stroke-width="2px"/><text text-anchor="middle" pointer-events="none" font-family="sans-serif" dy="1.5625" font-size="25" fill="#2A2C34"/><text text-anchor="middle" pointer-events="none" x="0" y="5" font-size="10px" fill="#2A2C34" font-family="sans-serif"> Sirikhola</text></g><g class="node" transform="translate(49.138557677878815,153.38613690241178)"><circle class="outline" cx="0" cy="0" r="25" fill="#8DCC93" stroke="#5db665" stroke-width="2px"/><text text-anchor="middle" pointer-events="none" font-family="sans-serif" dy="1.5625" font-size="25" fill="#2A2C34"/><text text-anchor="middle" pointer-events="none" x="0" y="5" font-size="10px" fill="#2A2C34" font-family="sans-serif"> Gurdum</text></g><g class="node" transform="translate(-47.81246844253862,176.1223423635848)"><circle class="outline" cx="0" cy="0" r="25" fill="#8DCC93" stroke="#5db665" stroke-width="2px"/><text text-anchor="middle" pointer-events="none" font-family="sans-serif" dy="1.5625" font-size="25" fill="#2A2C34"/><text text-anchor="middle" pointer-events="none" x="0" y="5" font-size="10px" fill="#2A2C34" font-family="sans-serif"> Rammam</text></g><g class="node" transform="translate(63.57936271862423,239.6011987437374)"><circle class="outline" cx="0" cy="0" r="25" fill="#D9C8AE" stroke="#c0a378" stroke-width="2px"/><text text-anchor="middle" pointer-events="none" font-family="sans-serif" dy="1.5625" font-size="25" fill="#2A2C34"/><text text-anchor="middle" pointer-events="none" x="0" y="5" font-size="10px" fill="#2A2C34" font-family="sans-serif"> Sabargr…</text></g></g></svg>