<svg xmlns="http://www.w3.org/2000/svg" width="163.74708557128906" height="243.2095489501953" viewBox="-1.3122997283935547 -20.6053466796875 163.74708557128906 243.2095489501953"><title>Neo4j Graph Visualization</title><desc>Created using Neo4j (http://www.neo4j.com/)</desc><g class="layer relationships"><g class="relationship" transform="translate(133.43478955821564 8.394653846023004) rotate(521.9638415463339)"><path class="outline" fill="#A5ABB6" stroke="none" d="M 21.40063509461097,12.933012701892217 L 21.90063509461097,12.06698729810778 A 59.940543429334234 59.940543429334234 0 0 0 23.470962752408333,12.942481573177474 L 22.997160840846565,13.823113021968858 A 60.940543429334234 60.940543429334234 0 0 1 21.40063509461097,12.933012701892217 Z M 77.38364475369261,15.499975537546646 L 76.96499509110797,14.591827719172464 A 59.940543429334234 59.940543429334234 0 0 0 78.5862757730358,13.814738194773284 L 77.24918234167977,11.12918775662758 L 85.0754090339351,11.142445261300185 L 80.36906701484382,17.39547211230089 L 79.0319735834878,14.709921674155186 A 60.940543429334234 60.940543429334234 0 0 1 77.38364475369261,15.499975537546646"/><text text-anchor="middle" pointer-events="none" font-size="8px" fill="#000000" x="50.00826861011848" y="23.568789475741973" transform="rotate(180 50.00826861011848 20.568789475741973)" font-family="sans-serif">PublicTrans…</text></g><g class="relationship" transform="translate(31.259991147083916 41.66456125462148) rotate(451.91908334914615)"><path class="outline" fill="#A5ABB6" stroke="none" d="M 25 0.5 L 40.16882016422333 0.5 L 40.16882016422333 -0.5 L 25 -0.5 Z M 59.50475766422333 0.5 L 74.67357782844665 0.5 L 74.67357782844665 3.5 L 81.67357782844665 0 L 74.67357782844665 -3.5 L 74.67357782844665 -0.5 L 59.50475766422333 -0.5 Z"/><text text-anchor="middle" pointer-events="none" font-size="8px" fill="#000000" x="49.83678891422333" y="3" transform="rotate(180 49.83678891422333 0)" font-family="sans-serif">trek</text></g><g class="relationship" transform="translate(27.687699897338867 148.27830775078706) rotate(384.9762406334996)"><path class="outline" fill="#A5ABB6" stroke="none" d="M 25 0.5 L 40.5048630068382 0.5 L 40.5048630068382 -0.5 L 25 -0.5 Z M 59.8408005068382 0.5 L 75.3456635136764 0.5 L 75.3456635136764 3.5 L 82.3456635136764 0 L 75.3456635136764 -3.5 L 75.3456635136764 -0.5 L 59.8408005068382 -0.5 Z"/><text text-anchor="middle" pointer-events="none" font-size="8px" fill="#000000" x="50.1728317568382" y="3" font-family="sans-serif">trek</text></g><g class="relationship" transform="translate(133.43478955821564 8.394653846023004) rotate(521.9638415463339)"><path class="outline" fill="#A5ABB6" stroke="none" d="M 25 0.5 L 40.55952925924132 0.5 L 40.55952925924132 -0.5 L 25 -0.5 Z M 59.89546675924132 0.5 L 75.45499601848265 0.5 L 75.45499601848265 3.5 L 82.45499601848265 0 L 75.45499601848265 -3.5 L 75.45499601848265 -0.5 L 59.89546675924132 -0.5 Z"/><text text-anchor="middle" pointer-events="none" font-size="8px" fill="#000000" x="50.22749800924132" y="3" transform="rotate(180 50.22749800924132 0)" font-family="sans-serif">trek</text></g><g class="relationship" transform="translate(133.43478955821564 8.394653846023004) rotate(521.9638415463339)"><path class="outline" fill="#A5ABB6" stroke="none" d="M 21.40063509461097,-12.933012701892217 L 21.90063509461097,-12.06698729810778 A 59.940543429334234 59.940543429334234 0 0 1 39.20478101961129,-18.743966219121738 L 38.99346952550381,-19.7213849893825 A 60.940543429334234 60.940543429334234 0 0 0 21.40063509461097,-12.933012701892217 Z M 61.054350814969325,-20.401573562598536 L 60.903655670342985,-19.412993280888422 A 59.940543429334234 59.940543429334234 0 0 1 78.5862757730358,-13.814738194773284 L 77.24918234167977,-11.12918775662758 L 85.0754090339351,-11.142445261300185 L 80.36906701484382,-17.39547211230089 L 79.0319735834878,-14.709921674155186 A 60.940543429334234 60.940543429334234 0 0 0 61.054350814969325,-20.401573562598536"/><text text-anchor="middle" pointer-events="none" font-size="8px" fill="#000000" x="50.00826861011849" y="-17.568789475741973" transform="rotate(180 50.00826861011849 -20.568789475741973)" font-family="sans-serif">road</text></g></g><g class="layer nodes"><g class="node" transform="translate(133.43478955821564,8.394653846023004)"><circle class="outline" cx="0" cy="0" r="25" fill="#F16667" stroke="#eb2728" stroke-width="2px"/><text text-anchor="middle" pointer-events="none" font-family="sans-serif" dy="1.5625" font-size="25" fill="#FFFFFF"/><text text-anchor="middle" pointer-events="none" x="0" y="5" font-size="10px" fill="#FFFFFF" font-family="sans-serif"> Darjeeling</text></g><g class="node" transform="translate(124.99471471304574,193.60419817609738)"><circle class="outline" cx="0" cy="0" r="25" fill="#D9C8AE" stroke="#c0a378" stroke-width="2px"/><text text-anchor="middle" pointer-events="none" font-family="sans-serif" dy="1.5625" font-size="25" fill="#2A2C34"/><text text-anchor="middle" pointer-events="none" x="0" y="5" font-size="10px" fill="#2A2C34" font-family="sans-serif"> Sandak…</text></g><g class="node" transform="translate(31.259991147083916,41.66456125462148)"><circle class="outline" cx="0" cy="0" r="25" fill="#F16667" stroke="#eb2728" stroke-width="2px"/><text text-anchor="middle" pointer-events="none" font-family="sans-serif" dy="1.5625" font-size="25" fill="#FFFFFF"/><text text-anchor="middle" pointer-events="none" x="0" y="5" font-size="10px" fill="#FFFFFF" font-family="sans-serif"> Rimbik</text></g><g class="node" transform="translate(27.687699897338867,148.27830775078706)"><circle class="outline" cx="0" cy="0" r="25" fill="#8DCC93" stroke="#5db665" stroke-width="2px"/><text text-anchor="middle" pointer-events="none" font-family="sans-serif" dy="1.5625" font-size="25" fill="#2A2C34"/><text text-anchor="middle" pointer-events="none" x="0" y="5" font-size="10px" fill="#2A2C34" font-family="sans-serif"> BhikeBh…</text></g></g></svg>