<svg xmlns="http://www.w3.org/2000/svg" width="285.6292724609375" height="265.7995300292969" viewBox="-31.801355361938477 -40.681251525878906 285.6292724609375 265.7995300292969"><title>Neo4j Graph Visualization</title><desc>Created using Neo4j (http://www.neo4j.com/)</desc><g class="layer relationships"><g class="relationship" transform="translate(162.37779279543307 196.11828096856968) rotate(243.71148458926177)"><path class="outline" fill="#A5ABB6" stroke="none" d="M 25 0.5 L 31.43174145557785 0.5 L 31.43174145557785 -0.5 L 25 -0.5 Z M 76.99424145557785 0.5 L 83.4259829111557 0.5 L 83.4259829111557 3.5 L 90.4259829111557 0 L 83.4259829111557 -3.5 L 83.4259829111557 -0.5 L 76.99424145557785 -0.5 Z"/><text text-anchor="middle" pointer-events="none" font-size="8px" fill="#000000" x="54.21299145557785" y="3" transform="rotate(180 54.21299145557785 0)" font-family="sans-serif">ACTED_IN</text></g><g class="relationship" transform="translate(224.82791134445844 91.39857676689684) rotate(539.3786783596138)"><path class="outline" fill="#A5ABB6" stroke="none" d="M 25 0.5 L 35.40227212075415 0.5 L 35.40227212075415 -0.5 L 25 -0.5 Z M 71.17570962075415 0.5 L 81.5779817415083 0.5 L 81.5779817415083 3.5 L 88.5779817415083 0 L 81.5779817415083 -3.5 L 81.5779817415083 -0.5 L 71.17570962075415 -0.5 Z"/><text text-anchor="middle" pointer-events="none" font-size="8px" fill="#000000" x="53.28899087075415" y="3" transform="rotate(180 53.28899087075415 0)" font-family="sans-serif">WROTE</text></g><g class="relationship" transform="translate(156.1265023684279 -11.681252945739908) rotate(473.27510658335416)"><path class="outline" fill="#A5ABB6" stroke="none" d="M 25 0.5 L 30.495038235051965 0.5 L 30.495038235051965 -0.5 L 25 -0.5 Z M 76.05753823505196 0.5 L 81.55257647010393 0.5 L 81.55257647010393 3.5 L 88.55257647010393 0 L 81.55257647010393 -3.5 L 81.55257647010393 -0.5 L 76.05753823505196 -0.5 Z"/><text text-anchor="middle" pointer-events="none" font-size="8px" fill="#000000" x="53.276288235051965" y="3" transform="rotate(180 53.276288235051965 0)" font-family="sans-serif">ACTED_IN</text></g><g class="relationship" transform="translate(35.42720011035377 5.661583632787704) rotate(408.9142776732091)"><path class="outline" fill="#A5ABB6" stroke="none" d="M 25 0.5 L 36.30565524899044 0.5 L 36.30565524899044 -0.5 L 25 -0.5 Z M 72.07909274899043 0.5 L 83.38474799798088 0.5 L 83.38474799798088 3.5 L 90.38474799798088 0 L 83.38474799798088 -3.5 L 83.38474799798088 -0.5 L 72.07909274899043 -0.5 Z"/><text text-anchor="middle" pointer-events="none" font-size="8px" fill="#000000" x="54.19237399899044" y="3" font-family="sans-serif">WROTE</text></g><g class="relationship" transform="translate(-2.801355354558108 106.49643895942164) rotate(353.0684628232166)"><path class="outline" fill="#A5ABB6" stroke="none" d="M 25 0.5 L 30.50355906067154 0.5 L 30.50355906067154 -0.5 L 25 -0.5 Z M 77.39418406067153 0.5 L 82.89774312134308 0.5 L 82.89774312134308 3.5 L 89.89774312134308 0 L 82.89774312134308 -3.5 L 82.89774312134308 -0.5 L 77.39418406067153 -0.5 Z"/><text text-anchor="middle" pointer-events="none" font-size="8px" fill="#000000" x="53.94887156067154" y="3" font-family="sans-serif">DIRECTED</text></g><g class="relationship" transform="translate(54.59026478285601 192.60805360221883) rotate(299.5440865317958)"><path class="outline" fill="#A5ABB6" stroke="none" d="M 25 0.5 L 31.178833337120793 0.5 L 31.178833337120793 -0.5 L 25 -0.5 Z M 76.74133333712079 0.5 L 82.92016667424159 0.5 L 82.92016667424159 3.5 L 89.92016667424159 0 L 82.92016667424159 -3.5 L 82.92016667424159 -0.5 L 76.74133333712079 -0.5 Z"/><text text-anchor="middle" pointer-events="none" font-size="8px" fill="#000000" x="53.96008333712079" y="3" font-family="sans-serif">ACTED_IN</text></g></g><g class="layer nodes"><g class="node" transform="translate(111.25660762103854,92.63020456663982)"><circle class="outline" cx="0" cy="0" r="25" fill="#57C7E3" stroke="#23b3d7" stroke-width="2px"/><text text-anchor="middle" pointer-events="none" font-family="sans-serif" dy="1.5625" font-size="25" fill="#2A2C34"/><text text-anchor="middle" pointer-events="none" font-family="sans-serif" dy="1.5625" font-size="25" fill="#2A2C34"/><text text-anchor="middle" pointer-events="none" font-family="sans-serif" dy="1.5625" font-size="25" fill="#2A2C34"/><text text-anchor="middle" pointer-events="none" x="0" y="-5" font-size="10px" fill="#2A2C34" font-family="sans-serif"> Captain</text><text text-anchor="middle" pointer-events="none" x="0" y="5" font-size="10px" fill="#2A2C34" font-family="sans-serif"> America:</text><text text-anchor="middle" pointer-events="none" x="0" y="15" font-size="10px" fill="#2A2C34" font-family="sans-serif"> The Fi…</text></g><g class="node" transform="translate(162.37779279543307,196.11828096856968)"><circle class="outline" cx="0" cy="0" r="25" fill="#F79767" stroke="#f36924" stroke-width="2px"/><text text-anchor="middle" pointer-events="none" font-family="sans-serif" dy="1.5625" font-size="25" fill="#FFFFFF"/><text text-anchor="middle" pointer-events="none" font-family="sans-serif" dy="1.5625" font-size="25" fill="#FFFFFF"/><text text-anchor="middle" pointer-events="none" x="0" y="0" font-size="10px" fill="#FFFFFF" font-family="sans-serif"> Hugo</text><text text-anchor="middle" pointer-events="none" x="0" y="10" font-size="10px" fill="#FFFFFF" font-family="sans-serif"> Weaving</text></g><g class="node" transform="translate(224.82791134445844,91.39857676689684)"><circle class="outline" cx="0" cy="0" r="25" fill="#F79767" stroke="#f36924" stroke-width="2px"/><text text-anchor="middle" pointer-events="none" font-family="sans-serif" dy="1.5625" font-size="25" fill="#FFFFFF"/><text text-anchor="middle" pointer-events="none" font-family="sans-serif" dy="1.5625" font-size="25" fill="#FFFFFF"/><text text-anchor="middle" pointer-events="none" x="0" y="0" font-size="10px" fill="#FFFFFF" font-family="sans-serif"> Stephen</text><text text-anchor="middle" pointer-events="none" x="0" y="10" font-size="10px" fill="#FFFFFF" font-family="sans-serif"> McFeely</text></g><g class="node" transform="translate(156.1265023684279,-11.681252945739908)"><circle class="outline" cx="0" cy="0" r="25" fill="#F79767" stroke="#f36924" stroke-width="2px"/><text text-anchor="middle" pointer-events="none" font-family="sans-serif" dy="1.5625" font-size="25" fill="#FFFFFF"/><text text-anchor="middle" pointer-events="none" font-family="sans-serif" dy="1.5625" font-size="25" fill="#FFFFFF"/><text text-anchor="middle" pointer-events="none" x="0" y="0" font-size="10px" fill="#FFFFFF" font-family="sans-serif"> Chris</text><text text-anchor="middle" pointer-events="none" x="0" y="10" font-size="10px" fill="#FFFFFF" font-family="sans-serif"> Evans</text></g><g class="node" transform="translate(35.42720011035377,5.661583632787704)"><circle class="outline" cx="0" cy="0" r="25" fill="#F79767" stroke="#f36924" stroke-width="2px"/><text text-anchor="middle" pointer-events="none" font-family="sans-serif" dy="1.5625" font-size="25" fill="#FFFFFF"/><text text-anchor="middle" pointer-events="none" x="0" y="5" font-size="10px" fill="#FFFFFF" font-family="sans-serif"> Christop…</text></g><g class="node" transform="translate(-2.801355354558108,106.49643895942164)"><circle class="outline" cx="0" cy="0" r="25" fill="#F79767" stroke="#f36924" stroke-width="2px"/><text text-anchor="middle" pointer-events="none" font-family="sans-serif" dy="1.5625" font-size="25" fill="#FFFFFF"/><text text-anchor="middle" pointer-events="none" font-family="sans-serif" dy="1.5625" font-size="25" fill="#FFFFFF"/><text text-anchor="middle" pointer-events="none" x="0" y="0" font-size="10px" fill="#FFFFFF" font-family="sans-serif"> Joe</text><text text-anchor="middle" pointer-events="none" x="0" y="10" font-size="10px" fill="#FFFFFF" font-family="sans-serif"> Johnston</text></g><g class="node" transform="translate(54.59026478285601,192.60805360221883)"><circle class="outline" cx="0" cy="0" r="25" fill="#F79767" stroke="#f36924" stroke-width="2px"/><text text-anchor="middle" pointer-events="none" font-family="sans-serif" dy="1.5625" font-size="25" fill="#FFFFFF"/><text text-anchor="middle" pointer-events="none" font-family="sans-serif" dy="1.5625" font-size="25" fill="#FFFFFF"/><text text-anchor="middle" pointer-events="none" font-family="sans-serif" dy="1.5625" font-size="25" fill="#FFFFFF"/><text text-anchor="middle" pointer-events="none" x="0" y="-5" font-size="10px" fill="#FFFFFF" font-family="sans-serif"> Samuel</text><text text-anchor="middle" pointer-events="none" x="0" y="5" font-size="10px" fill="#FFFFFF" font-family="sans-serif"> L.</text><text text-anchor="middle" pointer-events="none" x="0" y="15" font-size="10px" fill="#FFFFFF" font-family="sans-serif"> Jackson</text></g></g></svg>