<svg xmlns="http://www.w3.org/2000/svg" width="481.4862060546875" height="481.2660217285156" viewBox="-182.64251708984375 -141.005859375 481.4862060546875 481.2660217285156"><title>Neo4j Graph Visualization</title><desc>Created using Neo4j (http://www.neo4j.com/)</desc><g class="layer relationships"><g class="relationship" transform="translate(46.41311171426883 95.54038288344509) rotate(403.2408805097183)"><path class="outline" fill="#A5ABB6" stroke="none" d="M 25 0.5 L 42.29924674047392 0.5 L 42.29924674047392 -0.5 L 25 -0.5 Z M 87.86174674047392 0.5 L 105.16099348094784 0.5 L 105.16099348094784 3.5 L 112.16099348094784 0 L 105.16099348094784 -3.5 L 105.16099348094784 -0.5 L 87.86174674047392 -0.5 Z"/><text text-anchor="middle" pointer-events="none" font-size="8px" fill="#000000" x="65.08049674047392" y="3" font-family="sans-serif">ACTED_IN</text></g><g class="relationship" transform="translate(46.41311171426883 95.54038288344509) rotate(317.0870559384863)"><path class="outline" fill="#A5ABB6" stroke="none" d="M 25 0.5 L 41.12929183321778 0.5 L 41.12929183321778 -0.5 L 25 -0.5 Z M 86.69179183321778 0.5 L 102.82108366643556 0.5 L 102.82108366643556 3.5 L 109.82108366643556 0 L 102.82108366643556 -3.5 L 102.82108366643556 -0.5 L 86.69179183321778 -0.5 Z"/><text text-anchor="middle" pointer-events="none" font-size="8px" fill="#000000" x="63.91054183321778" y="3" font-family="sans-serif">ACTED_IN</text></g><g class="relationship" transform="translate(46.41311171426883 95.54038288344509) rotate(226.74096626657655)"><path class="outline" fill="#A5ABB6" stroke="none" d="M 25 0.5 L 47.142884664942 0.5 L 47.142884664942 -0.5 L 25 -0.5 Z M 92.705384664942 0.5 L 114.848269329884 0.5 L 114.848269329884 3.5 L 121.848269329884 0 L 114.848269329884 -3.5 L 114.848269329884 -0.5 L 92.705384664942 -0.5 Z"/><text text-anchor="middle" pointer-events="none" font-size="8px" fill="#000000" x="69.924134664942" y="3" transform="rotate(180 69.924134664942 0)" font-family="sans-serif">ACTED_IN</text></g><g class="relationship" transform="translate(46.41311171426883 95.54038288344509) rotate(514.9353546975858)"><path class="outline" fill="#A5ABB6" stroke="none" d="M 25 0.5 L 49.28296270956449 0.5 L 49.28296270956449 -0.5 L 25 -0.5 Z M 94.84546270956449 0.5 L 119.12842541912897 0.5 L 119.12842541912897 3.5 L 126.12842541912897 0 L 119.12842541912897 -3.5 L 119.12842541912897 -0.5 L 94.84546270956449 -0.5 Z"/><text text-anchor="middle" pointer-events="none" font-size="8px" fill="#000000" x="72.06421270956449" y="3" transform="rotate(180 72.06421270956449 0)" font-family="sans-serif">ACTED_IN</text></g><g class="relationship" transform="translate(46.41311171426883 95.54038288344509) rotate(494.2414453094646)"><path class="outline" fill="#A5ABB6" stroke="none" d="M 25 0.5 L 30.997467508849326 0.5 L 30.997467508849326 -0.5 L 25 -0.5 Z M 76.55996750884933 0.5 L 82.55743501769865 0.5 L 82.55743501769865 3.5 L 89.55743501769865 0 L 82.55743501769865 -3.5 L 82.55743501769865 -0.5 L 76.55996750884933 -0.5 Z"/><text text-anchor="middle" pointer-events="none" font-size="8px" fill="#000000" x="53.778717508849326" y="3" transform="rotate(180 53.778717508849326 0)" font-family="sans-serif">ACTED_IN</text></g><g class="relationship" transform="translate(146.62745670262217 311.2601592576166) rotate(269.8610366417222)"><path class="outline" fill="#A5ABB6" stroke="none" d="M 25 0.5 L 34.59657862514809 0.5 L 34.59657862514809 -0.5 L 25 -0.5 Z M 80.15907862514808 0.5 L 89.75565725029618 0.5 L 89.75565725029618 3.5 L 96.75565725029618 0 L 89.75565725029618 -3.5 L 89.75565725029618 -0.5 L 80.15907862514808 -0.5 Z"/><text text-anchor="middle" pointer-events="none" font-size="8px" fill="#000000" x="57.37782862514809" y="3" transform="rotate(180 57.37782862514809 0)" font-family="sans-serif">ACTED_IN</text></g><g class="relationship" transform="translate(235.80378091958207 276.58661709017105) rotate(224.22447785150825)"><path class="outline" fill="#A5ABB6" stroke="none" d="M 25 0.5 L 36.14551568622135 0.5 L 36.14551568622135 -0.5 L 25 -0.5 Z M 81.70801568622136 0.5 L 92.8535313724427 0.5 L 92.8535313724427 3.5 L 99.8535313724427 0 L 92.8535313724427 -3.5 L 92.8535313724427 -0.5 L 81.70801568622136 -0.5 Z"/><text text-anchor="middle" pointer-events="none" font-size="8px" fill="#000000" x="58.92676568622135" y="3" transform="rotate(180 58.92676568622135 0)" font-family="sans-serif">ACTED_IN</text></g><g class="relationship" transform="translate(269.84369690507356 192.7459659753436) rotate(181.50317189680158)"><path class="outline" fill="#A5ABB6" stroke="none" d="M 25 0.5 L 35.4957801671134 0.5 L 35.4957801671134 -0.5 L 25 -0.5 Z M 81.0582801671134 0.5 L 91.5540603342268 0.5 L 91.5540603342268 3.5 L 98.5540603342268 0 L 91.5540603342268 -3.5 L 91.5540603342268 -0.5 L 81.0582801671134 -0.5 Z"/><text text-anchor="middle" pointer-events="none" font-size="8px" fill="#000000" x="58.2770301671134" y="3" transform="rotate(180 58.2770301671134 0)" font-family="sans-serif">ACTED_IN</text></g><g class="relationship" transform="translate(261.69200715767954 39.21159682786901) rotate(196.92802748980245)"><path class="outline" fill="#A5ABB6" stroke="none" d="M 25 0.5 L 34.6265080965911 0.5 L 34.6265080965911 -0.5 L 25 -0.5 Z M 80.1890080965911 0.5 L 89.8155161931822 0.5 L 89.8155161931822 3.5 L 96.8155161931822 0 L 89.8155161931822 -3.5 L 89.8155161931822 -0.5 L 80.1890080965911 -0.5 Z"/><text text-anchor="middle" pointer-events="none" font-size="8px" fill="#000000" x="57.4077580965911" y="3" transform="rotate(180 57.4077580965911 0)" font-family="sans-serif">ACTED_IN</text></g><g class="relationship" transform="translate(260.73211117499426 -45.27035474870139) rotate(517.0196775247606)"><path class="outline" fill="#A5ABB6" stroke="none" d="M 25 0.5 L 36.48901569507384 0.5 L 36.48901569507384 -0.5 L 25 -0.5 Z M 82.05151569507385 0.5 L 93.54053139014768 0.5 L 93.54053139014768 3.5 L 100.54053139014768 0 L 93.54053139014768 -3.5 L 93.54053139014768 -0.5 L 82.05151569507385 -0.5 Z"/><text text-anchor="middle" pointer-events="none" font-size="8px" fill="#000000" x="59.27026569507384" y="3" transform="rotate(180 59.27026569507384 0)" font-family="sans-serif">ACTED_IN</text></g><g class="relationship" transform="translate(106.1526135142336 -112.00584955748042) rotate(431.37850416537066)"><path class="outline" fill="#A5ABB6" stroke="none" d="M 25 0.5 L 34.79011546633199 0.5 L 34.79011546633199 -0.5 L 25 -0.5 Z M 80.352615466332 0.5 L 90.14273093266398 0.5 L 90.14273093266398 3.5 L 97.14273093266398 0 L 90.14273093266398 -3.5 L 90.14273093266398 -0.5 L 80.352615466332 -0.5 Z"/><text text-anchor="middle" pointer-events="none" font-size="8px" fill="#000000" x="57.57136546633199" y="3" font-family="sans-serif">ACTED_IN</text></g><g class="relationship" transform="translate(198.65815991318001 -107.7852396448944) rotate(475.62856983273434)"><path class="outline" fill="#A5ABB6" stroke="none" d="M 25 0.5 L 35.5675131475328 0.5 L 35.5675131475328 -0.5 L 25 -0.5 Z M 81.1300131475328 0.5 L 91.6975262950656 0.5 L 91.6975262950656 3.5 L 98.6975262950656 0 L 91.6975262950656 -3.5 L 91.6975262950656 -0.5 L 81.1300131475328 -0.5 Z"/><text text-anchor="middle" pointer-events="none" font-size="8px" fill="#000000" x="58.3487631475328" y="3" transform="rotate(180 58.3487631475328 0)" font-family="sans-serif">ACTED_IN</text></g><g class="relationship" transform="translate(-100.27613197891637 65.48138991459412) rotate(300.92173752764785)"><path class="outline" fill="#A5ABB6" stroke="none" d="M 25 0.5 L 26.311659587527032 0.5 L 26.311659587527032 -0.5 L 25 -0.5 Z M 56.31165958752703 0.5 L 57.623319175054064 0.5 L 57.623319175054064 3.5 L 64.62331917505406 0 L 57.623319175054064 -3.5 L 57.623319175054064 -0.5 L 56.31165958752703 -0.5 Z"/><text text-anchor="middle" pointer-events="none" font-size="8px" fill="#000000" x="41.31165958752703" y="3" font-family="sans-serif">ACT…</text></g><g class="relationship" transform="translate(-100.27613197891637 65.48138991459412) rotate(444.05783664219035)"><path class="outline" fill="#A5ABB6" stroke="none" d="M 25 0.5 L 26.12771704762593 0.5 L 26.12771704762593 -0.5 L 25 -0.5 Z M 61.46365454762593 0.5 L 62.59137159525186 0.5 L 62.59137159525186 3.5 L 69.59137159525186 0 L 62.59137159525186 -3.5 L 62.59137159525186 -0.5 L 61.46365454762593 -0.5 Z"/><text text-anchor="middle" pointer-events="none" font-size="8px" fill="#000000" x="43.79568579762593" y="3" font-family="sans-serif">ACTE…</text></g><g class="relationship" transform="translate(-100.27613197891637 65.48138991459412) rotate(419.22929263523844)"><path class="outline" fill="#A5ABB6" stroke="none" d="M 25 0.5 L 38.96888149379261 0.5 L 38.96888149379261 -0.5 L 25 -0.5 Z M 84.53138149379261 0.5 L 98.50026298758522 0.5 L 98.50026298758522 3.5 L 105.50026298758522 0 L 98.50026298758522 -3.5 L 98.50026298758522 -0.5 L 84.53138149379261 -0.5 Z"/><text text-anchor="middle" pointer-events="none" font-size="8px" fill="#000000" x="61.75013149379261" y="3" font-family="sans-serif">ACTED_IN</text></g><g class="relationship" transform="translate(-24.72988723724113 76.78623213127986) rotate(251.50944292032455)"><path class="outline" fill="#A5ABB6" stroke="none" d="M 25 0.5 L 25.327306244263703 0.5 L 25.327306244263703 -0.5 L 25 -0.5 Z M 60.6632437442637 0.5 L 60.990549988527405 0.5 L 60.990549988527405 3.5 L 67.9905499885274 0 L 60.990549988527405 -3.5 L 60.990549988527405 -0.5 L 60.6632437442637 -0.5 Z"/><text text-anchor="middle" pointer-events="none" font-size="8px" fill="#000000" x="42.9952749942637" y="3" transform="rotate(180 42.9952749942637 0)" font-family="sans-serif">ACTE…</text></g><g class="relationship" transform="translate(-24.72988723724113 76.78623213127986) rotate(488.4613602846266)"><path class="outline" fill="#A5ABB6" stroke="none" d="M 25 0.5 L 26.576567562378123 0.5 L 26.576567562378123 -0.5 L 25 -0.5 Z M 72.13906756237813 0.5 L 73.71563512475625 0.5 L 73.71563512475625 3.5 L 80.71563512475625 0 L 73.71563512475625 -3.5 L 73.71563512475625 -0.5 L 72.13906756237813 -0.5 Z"/><text text-anchor="middle" pointer-events="none" font-size="8px" fill="#000000" x="49.35781756237812" y="3" transform="rotate(180 49.35781756237812 0)" font-family="sans-serif">ACTED_IN</text></g><g class="relationship" transform="translate(-24.72988723724113 76.78623213127986) rotate(454.9779451716495)"><path class="outline" fill="#A5ABB6" stroke="none" d="M 25 0.5 L 26.54612343308616 0.5 L 26.54612343308616 -0.5 L 25 -0.5 Z M 67.65940468308617 0.5 L 69.20552811617232 0.5 L 69.20552811617232 3.5 L 76.20552811617232 0 L 69.20552811617232 -3.5 L 69.20552811617232 -0.5 L 67.65940468308617 -0.5 Z"/><text text-anchor="middle" pointer-events="none" font-size="8px" fill="#000000" x="47.10276405808616" y="3" transform="rotate(180 47.10276405808616 0)" font-family="sans-serif">ACTED…</text></g><g class="relationship" transform="translate(-153.64252004293158 92.41405629878818) rotate(313.7606207621212)"><path class="outline" fill="#A5ABB6" stroke="none" d="M 25 0.5 L 45.59128047850746 0.5 L 45.59128047850746 -0.5 L 25 -0.5 Z M 91.15378047850746 0.5 L 111.74506095701491 0.5 L 111.74506095701491 3.5 L 118.74506095701491 0 L 111.74506095701491 -3.5 L 111.74506095701491 -0.5 L 91.15378047850746 -0.5 Z"/><text text-anchor="middle" pointer-events="none" font-size="8px" fill="#000000" x="68.37253047850746" y="3" font-family="sans-serif">ACTED_IN</text></g><g class="relationship" transform="translate(-153.64252004293158 92.41405629878818) rotate(406.75449507275243)"><path class="outline" fill="#A5ABB6" stroke="none" d="M 25 0.5 L 27.59292804663327 0.5 L 27.59292804663327 -0.5 L 25 -0.5 Z M 57.59292804663327 0.5 L 60.18585609326654 0.5 L 60.18585609326654 3.5 L 67.18585609326654 0 L 60.18585609326654 -3.5 L 60.18585609326654 -0.5 L 57.59292804663327 -0.5 Z"/><text text-anchor="middle" pointer-events="none" font-size="8px" fill="#000000" x="42.59292804663327" y="3" font-family="sans-serif">ACT…</text></g><g class="relationship" transform="translate(-153.64252004293158 92.41405629878818) rotate(395.34401563187254)"><path class="outline" fill="#A5ABB6" stroke="none" d="M 25 0.5 L 47.355973847969594 0.5 L 47.355973847969594 -0.5 L 25 -0.5 Z M 92.9184738479696 0.5 L 115.27444769593919 0.5 L 115.27444769593919 3.5 L 122.27444769593919 0 L 115.27444769593919 -3.5 L 115.27444769593919 -0.5 L 92.9184738479696 -0.5 Z"/><text text-anchor="middle" pointer-events="none" font-size="8px" fill="#000000" x="70.1372238479696" y="3" font-family="sans-serif">ACTED_IN</text></g><g class="relationship" transform="translate(-57.56556126565297 298.00840134113304) rotate(281.29811094764955)"><path class="outline" fill="#A5ABB6" stroke="none" d="M 25 0.5 L 35.10758232750738 0.5 L 35.10758232750738 -0.5 L 25 -0.5 Z M 80.67008232750737 0.5 L 90.77766465501476 0.5 L 90.77766465501476 3.5 L 97.77766465501476 0 L 90.77766465501476 -3.5 L 90.77766465501476 -0.5 L 80.67008232750737 -0.5 Z"/><text text-anchor="middle" pointer-events="none" font-size="8px" fill="#000000" x="57.88883232750738" y="3" font-family="sans-serif">ACTED_IN</text></g></g><g class="layer nodes"><g class="node" transform="translate(46.41311171426883,95.54038288344509)"><circle class="outline" cx="0" cy="0" r="25" fill="#F79767" stroke="#f36924" stroke-width="2px"/><text text-anchor="middle" pointer-events="none" font-family="sans-serif" dy="1.5625" font-size="25" fill="#FFFFFF"/><text text-anchor="middle" pointer-events="none" font-family="sans-serif" dy="1.5625" font-size="25" fill="#FFFFFF"/><text text-anchor="middle" pointer-events="none" x="0" y="0" font-size="10px" fill="#FFFFFF" font-family="sans-serif"> Hugo</text><text text-anchor="middle" pointer-events="none" x="0" y="10" font-size="10px" fill="#FFFFFF" font-family="sans-serif"> Weaving</text></g><g class="node" transform="translate(146.33215469998552,189.50486011553062)"><circle class="outline" cx="0" cy="0" r="25" fill="#57C7E3" stroke="#23b3d7" stroke-width="2px"/><text text-anchor="middle" pointer-events="none" font-family="sans-serif" dy="1.5625" font-size="25" fill="#2A2C34"/><text text-anchor="middle" pointer-events="none" font-family="sans-serif" dy="1.5625" font-size="25" fill="#2A2C34"/><text text-anchor="middle" pointer-events="none" x="0" y="0" font-size="10px" fill="#2A2C34" font-family="sans-serif"> Cloud</text><text text-anchor="middle" pointer-events="none" x="0" y="10" font-size="10px" fill="#2A2C34" font-family="sans-serif"> Atlas</text></g><g class="node" transform="translate(146.62745670262217,311.2601592576166)"><circle class="outline" cx="0" cy="0" r="25" fill="#F79767" stroke="#f36924" stroke-width="2px"/><text text-anchor="middle" pointer-events="none" font-family="sans-serif" dy="1.5625" font-size="25" fill="#FFFFFF"/><text text-anchor="middle" pointer-events="none" font-family="sans-serif" dy="1.5625" font-size="25" fill="#FFFFFF"/><text text-anchor="middle" pointer-events="none" x="0" y="0" font-size="10px" fill="#FFFFFF" font-family="sans-serif"> Tom</text><text text-anchor="middle" pointer-events="none" x="0" y="10" font-size="10px" fill="#FFFFFF" font-family="sans-serif"> Hanks</text></g><g class="node" transform="translate(235.80378091958207,276.58661709017105)"><circle class="outline" cx="0" cy="0" r="25" fill="#F79767" stroke="#f36924" stroke-width="2px"/><text text-anchor="middle" pointer-events="none" font-family="sans-serif" dy="1.5625" font-size="25" fill="#FFFFFF"/><text text-anchor="middle" pointer-events="none" font-family="sans-serif" dy="1.5625" font-size="25" fill="#FFFFFF"/><text text-anchor="middle" pointer-events="none" x="0" y="0" font-size="10px" fill="#FFFFFF" font-family="sans-serif"> Jim</text><text text-anchor="middle" pointer-events="none" x="0" y="10" font-size="10px" fill="#FFFFFF" font-family="sans-serif"> Broadb…</text></g><g class="node" transform="translate(269.84369690507356,192.7459659753436)"><circle class="outline" cx="0" cy="0" r="25" fill="#F79767" stroke="#f36924" stroke-width="2px"/><text text-anchor="middle" pointer-events="none" font-family="sans-serif" dy="1.5625" font-size="25" fill="#FFFFFF"/><text text-anchor="middle" pointer-events="none" font-family="sans-serif" dy="1.5625" font-size="25" fill="#FFFFFF"/><text text-anchor="middle" pointer-events="none" x="0" y="0" font-size="10px" fill="#FFFFFF" font-family="sans-serif"> Halle</text><text text-anchor="middle" pointer-events="none" x="0" y="10" font-size="10px" fill="#FFFFFF" font-family="sans-serif"> Berry</text></g><g class="node" transform="translate(145.15460303607506,3.7425479823011765)"><circle class="outline" cx="0" cy="0" r="25" fill="#57C7E3" stroke="#23b3d7" stroke-width="2px"/><text text-anchor="middle" pointer-events="none" font-family="sans-serif" dy="1.5625" font-size="25" fill="#2A2C34"/><text text-anchor="middle" pointer-events="none" font-family="sans-serif" dy="1.5625" font-size="25" fill="#2A2C34"/><text text-anchor="middle" pointer-events="none" x="0" y="0" font-size="10px" fill="#2A2C34" font-family="sans-serif"> V for</text><text text-anchor="middle" pointer-events="none" x="0" y="10" font-size="10px" fill="#2A2C34" font-family="sans-serif"> Vendetta</text></g><g class="node" transform="translate(261.69200715767954,39.21159682786901)"><circle class="outline" cx="0" cy="0" r="25" fill="#F79767" stroke="#f36924" stroke-width="2px"/><text text-anchor="middle" pointer-events="none" font-family="sans-serif" dy="1.5625" font-size="25" fill="#FFFFFF"/><text text-anchor="middle" pointer-events="none" x="0" y="5" font-size="10px" fill="#FFFFFF" font-family="sans-serif"> John Hurt</text></g><g class="node" transform="translate(260.73211117499426,-45.27035474870139)"><circle class="outline" cx="0" cy="0" r="25" fill="#F79767" stroke="#f36924" stroke-width="2px"/><text text-anchor="middle" pointer-events="none" font-family="sans-serif" dy="1.5625" font-size="25" fill="#FFFFFF"/><text text-anchor="middle" pointer-events="none" font-family="sans-serif" dy="1.5625" font-size="25" fill="#FFFFFF"/><text text-anchor="middle" pointer-events="none" x="0" y="0" font-size="10px" fill="#FFFFFF" font-family="sans-serif"> Stephen</text><text text-anchor="middle" pointer-events="none" x="0" y="10" font-size="10px" fill="#FFFFFF" font-family="sans-serif"> Rea</text></g><g class="node" transform="translate(106.1526135142336,-112.00584955748042)"><circle class="outline" cx="0" cy="0" r="25" fill="#F79767" stroke="#f36924" stroke-width="2px"/><text text-anchor="middle" pointer-events="none" font-family="sans-serif" dy="1.5625" font-size="25" fill="#FFFFFF"/><text text-anchor="middle" pointer-events="none" font-family="sans-serif" dy="1.5625" font-size="25" fill="#FFFFFF"/><text text-anchor="middle" pointer-events="none" x="0" y="0" font-size="10px" fill="#FFFFFF" font-family="sans-serif"> Natalie</text><text text-anchor="middle" pointer-events="none" x="0" y="10" font-size="10px" fill="#FFFFFF" font-family="sans-serif"> Portman</text></g><g class="node" transform="translate(198.65815991318001,-107.7852396448944)"><circle class="outline" cx="0" cy="0" r="25" fill="#F79767" stroke="#f36924" stroke-width="2px"/><text text-anchor="middle" pointer-events="none" font-family="sans-serif" dy="1.5625" font-size="25" fill="#FFFFFF"/><text text-anchor="middle" pointer-events="none" x="0" y="5" font-size="10px" fill="#FFFFFF" font-family="sans-serif"> Ben Miles</text></g><g class="node" transform="translate(-54.22168755250093,-11.40376787628141)"><circle class="outline" cx="0" cy="0" r="25" fill="#57C7E3" stroke="#23b3d7" stroke-width="2px"/><text text-anchor="middle" pointer-events="none" font-family="sans-serif" dy="1.5625" font-size="25" fill="#2A2C34"/><text text-anchor="middle" pointer-events="none" font-family="sans-serif" dy="1.5625" font-size="25" fill="#2A2C34"/><text text-anchor="middle" pointer-events="none" font-family="sans-serif" dy="1.5625" font-size="25" fill="#2A2C34"/><text text-anchor="middle" pointer-events="none" x="0" y="-5" font-size="10px" fill="#2A2C34" font-family="sans-serif"> The</text><text text-anchor="middle" pointer-events="none" x="0" y="5" font-size="10px" fill="#2A2C34" font-family="sans-serif"> Matrix</text><text text-anchor="middle" pointer-events="none" x="0" y="15" font-size="10px" fill="#2A2C34" font-family="sans-serif"> Revol…</text></g><g class="node" transform="translate(-100.27613197891637,65.48138991459412)"><circle class="outline" cx="0" cy="0" r="25" fill="#F79767" stroke="#f36924" stroke-width="2px"/><text text-anchor="middle" pointer-events="none" font-family="sans-serif" dy="1.5625" font-size="25" fill="#FFFFFF"/><text text-anchor="middle" pointer-events="none" font-family="sans-serif" dy="1.5625" font-size="25" fill="#FFFFFF"/><text text-anchor="middle" pointer-events="none" x="0" y="0" font-size="10px" fill="#FFFFFF" font-family="sans-serif"> Laurence</text><text text-anchor="middle" pointer-events="none" x="0" y="10" font-size="10px" fill="#FFFFFF" font-family="sans-serif"> Fishbur…</text></g><g class="node" transform="translate(-24.72988723724113,76.78623213127986)"><circle class="outline" cx="0" cy="0" r="25" fill="#F79767" stroke="#f36924" stroke-width="2px"/><text text-anchor="middle" pointer-events="none" font-family="sans-serif" dy="1.5625" font-size="25" fill="#FFFFFF"/><text text-anchor="middle" pointer-events="none" x="0" y="5" font-size="10px" fill="#FFFFFF" font-family="sans-serif"> Carrie-A…</text></g><g class="node" transform="translate(-153.64252004293158,92.41405629878818)"><circle class="outline" cx="0" cy="0" r="25" fill="#F79767" stroke="#f36924" stroke-width="2px"/><text text-anchor="middle" pointer-events="none" font-family="sans-serif" dy="1.5625" font-size="25" fill="#FFFFFF"/><text text-anchor="middle" pointer-events="none" font-family="sans-serif" dy="1.5625" font-size="25" fill="#FFFFFF"/><text text-anchor="middle" pointer-events="none" x="0" y="0" font-size="10px" fill="#FFFFFF" font-family="sans-serif"> Keanu</text><text text-anchor="middle" pointer-events="none" x="0" y="10" font-size="10px" fill="#FFFFFF" font-family="sans-serif"> Reeves</text></g><g class="node" transform="translate(-90.48360751459205,159.56451297546317)"><circle class="outline" cx="0" cy="0" r="25" fill="#57C7E3" stroke="#23b3d7" stroke-width="2px"/><text text-anchor="middle" pointer-events="none" font-family="sans-serif" dy="1.5625" font-size="25" fill="#2A2C34"/><text text-anchor="middle" pointer-events="none" font-family="sans-serif" dy="1.5625" font-size="25" fill="#2A2C34"/><text text-anchor="middle" pointer-events="none" font-family="sans-serif" dy="1.5625" font-size="25" fill="#2A2C34"/><text text-anchor="middle" pointer-events="none" x="0" y="-5" font-size="10px" fill="#2A2C34" font-family="sans-serif"> The</text><text text-anchor="middle" pointer-events="none" x="0" y="5" font-size="10px" fill="#2A2C34" font-family="sans-serif"> Matrix</text><text text-anchor="middle" pointer-events="none" x="0" y="15" font-size="10px" fill="#2A2C34" font-family="sans-serif"> Reloa…</text></g><g class="node" transform="translate(-33.511720820677716,177.6100305133393)"><circle class="outline" cx="0" cy="0" r="25" fill="#57C7E3" stroke="#23b3d7" stroke-width="2px"/><text text-anchor="middle" pointer-events="none" font-family="sans-serif" dy="1.5625" font-size="25" fill="#2A2C34"/><text text-anchor="middle" pointer-events="none" font-family="sans-serif" dy="1.5625" font-size="25" fill="#2A2C34"/><text text-anchor="middle" pointer-events="none" x="0" y="0" font-size="10px" fill="#2A2C34" font-family="sans-serif"> The</text><text text-anchor="middle" pointer-events="none" x="0" y="10" font-size="10px" fill="#2A2C34" font-family="sans-serif"> Matrix</text></g><g class="node" transform="translate(-57.56556126565297,298.00840134113304)"><circle class="outline" cx="0" cy="0" r="25" fill="#F79767" stroke="#f36924" stroke-width="2px"/><text text-anchor="middle" pointer-events="none" font-family="sans-serif" dy="1.5625" font-size="25" fill="#FFFFFF"/><text text-anchor="middle" pointer-events="none" font-family="sans-serif" dy="1.5625" font-size="25" fill="#FFFFFF"/><text text-anchor="middle" pointer-events="none" x="0" y="0" font-size="10px" fill="#FFFFFF" font-family="sans-serif"> Emil</text><text text-anchor="middle" pointer-events="none" x="0" y="10" font-size="10px" fill="#FFFFFF" font-family="sans-serif"> Eifrem</text></g></g></svg>