<svg xmlns="http://www.w3.org/2000/svg" width="497.2005615234375" height="384.95599365234375" viewBox="-185.98757934570312 -145.46429443359375 497.2005615234375 384.95599365234375"><title>Neo4j Graph Visualization</title><desc>Created using Neo4j (http://www.neo4j.com/)</desc><g class="layer relationships"><g class="relationship" transform="translate(156.38292698945398 84.62744431301229) rotate(434.09773394286253)"><path class="outline" fill="#A5ABB6" stroke="none" d="M 25 0.5 L 39.15508547713287 0.5 L 39.15508547713287 -0.5 L 25 -0.5 Z M 84.71758547713287 0.5 L 98.87267095426574 0.5 L 98.87267095426574 3.5 L 105.87267095426574 0 L 98.87267095426574 -3.5 L 98.87267095426574 -0.5 L 84.71758547713287 -0.5 Z"/><text text-anchor="middle" pointer-events="none" font-size="8px" fill="#000000" x="61.93633547713287" y="3" font-family="sans-serif">ACTED_IN</text></g><g class="relationship" transform="translate(156.38292698945398 84.62744431301229) rotate(395.0476154334469)"><path class="outline" fill="#A5ABB6" stroke="none" d="M 25 0.5 L 37.74022827004946 0.5 L 37.74022827004946 -0.5 L 25 -0.5 Z M 83.30272827004946 0.5 L 96.04295654009891 0.5 L 96.04295654009891 3.5 L 103.04295654009891 0 L 96.04295654009891 -3.5 L 96.04295654009891 -0.5 L 83.30272827004946 -0.5 Z"/><text text-anchor="middle" pointer-events="none" font-size="8px" fill="#000000" x="60.52147827004946" y="3" font-family="sans-serif">ACTED_IN</text></g><g class="relationship" transform="translate(156.38292698945398 84.62744431301229) rotate(354.36131662565697)"><path class="outline" fill="#A5ABB6" stroke="none" d="M 25 0.5 L 36.9396900088837 0.5 L 36.9396900088837 -0.5 L 25 -0.5 Z M 82.5021900088837 0.5 L 94.4418800177674 0.5 L 94.4418800177674 3.5 L 101.4418800177674 0 L 94.4418800177674 -3.5 L 94.4418800177674 -0.5 L 82.5021900088837 -0.5 Z"/><text text-anchor="middle" pointer-events="none" font-size="8px" fill="#000000" x="59.7209400088837" y="3" font-family="sans-serif">ACTED_IN</text></g><g class="relationship" transform="translate(156.38292698945398 84.62744431301229) rotate(310.4680187464138)"><path class="outline" fill="#A5ABB6" stroke="none" d="M 25 0.5 L 37.54125699041417 0.5 L 37.54125699041417 -0.5 L 25 -0.5 Z M 83.10375699041417 0.5 L 95.64501398082834 0.5 L 95.64501398082834 3.5 L 102.64501398082834 0 L 95.64501398082834 -3.5 L 95.64501398082834 -0.5 L 83.10375699041417 -0.5 Z"/><text text-anchor="middle" pointer-events="none" font-size="8px" fill="#000000" x="60.32250699041417" y="3" font-family="sans-serif">ACTED_IN</text></g><g class="relationship" transform="translate(156.38292698945398 84.62744431301229) rotate(493.913003818042)"><path class="outline" fill="#A5ABB6" stroke="none" d="M 25 0.5 L 44.897982008596315 0.5 L 44.897982008596315 -0.5 L 25 -0.5 Z M 90.46048200859632 0.5 L 110.35846401719263 0.5 L 110.35846401719263 3.5 L 117.35846401719263 0 L 110.35846401719263 -3.5 L 110.35846401719263 -0.5 L 90.46048200859632 -0.5 Z"/><text text-anchor="middle" pointer-events="none" font-size="8px" fill="#000000" x="67.67923200859632" y="3" transform="rotate(180 67.67923200859632 0)" font-family="sans-serif">ACTED_IN</text></g><g class="relationship" transform="translate(156.38292698945398 84.62744431301229) rotate(225.91068750635975)"><path class="outline" fill="#A5ABB6" stroke="none" d="M 25 0.5 L 25.023542942100875 0.5 L 25.023542942100875 -0.5 L 25 -0.5 Z M 70.58604294210087 0.5 L 70.60958588420175 0.5 L 70.60958588420175 3.5 L 77.60958588420175 0 L 70.60958588420175 -3.5 L 70.60958588420175 -0.5 L 70.58604294210087 -0.5 Z"/><text text-anchor="middle" pointer-events="none" font-size="8px" fill="#000000" x="47.804792942100875" y="3" transform="rotate(180 47.804792942100875 0)" font-family="sans-serif">ACTED_IN</text></g><g class="relationship" transform="translate(156.38292698945398 84.62744431301229) rotate(211.64971529695163)"><path class="outline" fill="#A5ABB6" stroke="none" d="M 25 0.5 L 50.48047482322026 0.5 L 50.48047482322026 -0.5 L 25 -0.5 Z M 96.04297482322026 0.5 L 121.52344964644053 0.5 L 121.52344964644053 3.5 L 128.52344964644053 0 L 121.52344964644053 -3.5 L 121.52344964644053 -0.5 L 96.04297482322026 -0.5 Z"/><text text-anchor="middle" pointer-events="none" font-size="8px" fill="#000000" x="73.26172482322026" y="3" transform="rotate(180 73.26172482322026 0)" font-family="sans-serif">ACTED_IN</text></g><g class="relationship" transform="translate(89.35188350884717 101.58713407125322) rotate(470.3244344424829)"><path class="outline" fill="#A5ABB6" stroke="none" d="M 25 0.5 L 27.13864819166647 0.5 L 27.13864819166647 -0.5 L 25 -0.5 Z M 57.13864819166647 0.5 L 59.27729638333294 0.5 L 59.27729638333294 3.5 L 66.27729638333294 0 L 59.27729638333294 -3.5 L 59.27729638333294 -0.5 L 57.13864819166647 -0.5 Z"/><text text-anchor="middle" pointer-events="none" font-size="8px" fill="#000000" x="42.13864819166647" y="3" transform="rotate(180 42.13864819166647 0)" font-family="sans-serif">ACT…</text></g><g class="relationship" transform="translate(89.35188350884717 101.58713407125322) rotate(267.2450573114819)"><path class="outline" fill="#A5ABB6" stroke="none" d="M 25 0.5 L 26.88227597612932 0.5 L 26.88227597612932 -0.5 L 25 -0.5 Z M 56.88227597612932 0.5 L 58.76455195225864 0.5 L 58.76455195225864 3.5 L 65.76455195225864 0 L 58.76455195225864 -3.5 L 58.76455195225864 -0.5 L 56.88227597612932 -0.5 Z"/><text text-anchor="middle" pointer-events="none" font-size="8px" fill="#000000" x="41.88227597612932" y="3" transform="rotate(180 41.88227597612932 0)" font-family="sans-serif">ACT…</text></g><g class="relationship" transform="translate(89.35188350884717 101.58713407125322) rotate(236.86353597868106)"><path class="outline" fill="#A5ABB6" stroke="none" d="M 25 0.5 L 31.94696869805402 0.5 L 31.94696869805402 -0.5 L 25 -0.5 Z M 77.50946869805402 0.5 L 84.45643739610804 0.5 L 84.45643739610804 3.5 L 91.45643739610804 0 L 84.45643739610804 -3.5 L 84.45643739610804 -0.5 L 77.50946869805402 -0.5 Z"/><text text-anchor="middle" pointer-events="none" font-size="8px" fill="#000000" x="54.72821869805402" y="3" transform="rotate(180 54.72821869805402 0)" font-family="sans-serif">ACTED_IN</text></g><g class="relationship" transform="translate(15.492039382005576 103.6089683910747) rotate(423.232551068313)"><path class="outline" fill="#A5ABB6" stroke="none" d="M 25 0.5 L 25.633500776568916 0.5 L 25.633500776568916 -0.5 L 25 -0.5 Z M 60.969438276568916 0.5 L 61.60293905313783 0.5 L 61.60293905313783 3.5 L 68.60293905313783 0 L 61.60293905313783 -3.5 L 61.60293905313783 -0.5 L 60.969438276568916 -0.5 Z"/><text text-anchor="middle" pointer-events="none" font-size="8px" fill="#000000" x="43.301469526568916" y="3" font-family="sans-serif">ACTE…</text></g><g class="relationship" transform="translate(15.492039382005576 103.6089683910747) rotate(306.86443590829987)"><path class="outline" fill="#A5ABB6" stroke="none" d="M 25 0.5 L 31.640537070183008 0.5 L 31.640537070183008 -0.5 L 25 -0.5 Z M 77.203037070183 0.5 L 83.84357414036602 0.5 L 83.84357414036602 3.5 L 90.84357414036602 0 L 83.84357414036602 -3.5 L 83.84357414036602 -0.5 L 77.203037070183 -0.5 Z"/><text text-anchor="middle" pointer-events="none" font-size="8px" fill="#000000" x="54.42178707018301" y="3" font-family="sans-serif">ACTED_IN</text></g><g class="relationship" transform="translate(15.492039382005576 103.6089683910747) rotate(275.8511971831307)"><path class="outline" fill="#A5ABB6" stroke="none" d="M 25 0.5 L 25.973554880645096 0.5 L 25.973554880645096 -0.5 L 25 -0.5 Z M 67.0868361306451 0.5 L 68.06039101129019 0.5 L 68.06039101129019 3.5 L 75.06039101129019 0 L 68.06039101129019 -3.5 L 68.06039101129019 -0.5 L 67.0868361306451 -0.5 Z"/><text text-anchor="middle" pointer-events="none" font-size="8px" fill="#000000" x="46.530195505645096" y="3" font-family="sans-serif">ACTED…</text></g><g class="relationship" transform="translate(-41.64815644664414 85.5355871552169) rotate(189.1420222258812)"><path class="outline" fill="#A5ABB6" stroke="none" d="M 25 0.5 L 32.13043111956467 0.5 L 32.13043111956467 -0.5 L 25 -0.5 Z M 77.69293111956466 0.5 L 84.82336223912934 0.5 L 84.82336223912934 3.5 L 91.82336223912934 0 L 84.82336223912934 -3.5 L 84.82336223912934 -0.5 L 77.69293111956466 -0.5 Z"/><text text-anchor="middle" pointer-events="none" font-size="8px" fill="#000000" x="54.91168111956467" y="3" transform="rotate(180 54.91168111956467 0)" font-family="sans-serif">ACTED_IN</text></g><g class="relationship" transform="translate(-41.64815644664414 85.5355871552169) rotate(483.9444962249763)"><path class="outline" fill="#A5ABB6" stroke="none" d="M 25 0.5 L 34.85385585363555 0.5 L 34.85385585363555 -0.5 L 25 -0.5 Z M 80.41635585363555 0.5 L 90.2702117072711 0.5 L 90.2702117072711 3.5 L 97.2702117072711 0 L 90.2702117072711 -3.5 L 90.2702117072711 -0.5 L 80.41635585363555 -0.5 Z"/><text text-anchor="middle" pointer-events="none" font-size="8px" fill="#000000" x="57.63510585363555" y="3" transform="rotate(180 57.63510585363555 0)" font-family="sans-serif">ACTED_IN</text></g><g class="relationship" transform="translate(-41.64815644664414 85.5355871552169) rotate(405.66998531314806)"><path class="outline" fill="#A5ABB6" stroke="none" d="M 25 0.5 L 44.767398786498006 0.5 L 44.767398786498006 -0.5 L 25 -0.5 Z M 90.329898786498 0.5 L 110.09729757299601 0.5 L 110.09729757299601 3.5 L 117.09729757299601 0 L 110.09729757299601 -3.5 L 110.09729757299601 -0.5 L 90.329898786498 -0.5 Z"/><text text-anchor="middle" pointer-events="none" font-size="8px" fill="#000000" x="67.548648786498" y="3" font-family="sans-serif">ACTED_IN</text></g><g class="relationship" transform="translate(-41.64815644664414 85.5355871552169) rotate(329.4956632417284)"><path class="outline" fill="#A5ABB6" stroke="none" d="M 25 0.5 L 47.209271404095006 0.5 L 47.209271404095006 -0.5 L 25 -0.5 Z M 92.771771404095 0.5 L 114.98104280819001 0.5 L 114.98104280819001 3.5 L 121.98104280819001 0 L 114.98104280819001 -3.5 L 114.98104280819001 -0.5 L 92.771771404095 -0.5 Z"/><text text-anchor="middle" pointer-events="none" font-size="8px" fill="#000000" x="69.990521404095" y="3" font-family="sans-serif">ACTED_IN</text></g><g class="relationship" transform="translate(-41.64815644664414 85.5355871552169) rotate(309.5776920997894)"><path class="outline" fill="#A5ABB6" stroke="none" d="M 25 0.5 L 26.56629804171034 0.5 L 26.56629804171034 -0.5 L 25 -0.5 Z M 72.12879804171034 0.5 L 73.69509608342068 0.5 L 73.69509608342068 3.5 L 80.69509608342068 0 L 73.69509608342068 -3.5 L 73.69509608342068 -0.5 L 72.12879804171034 -0.5 Z"/><text text-anchor="middle" pointer-events="none" font-size="8px" fill="#000000" x="49.34754804171034" y="3" font-family="sans-serif">ACTED_IN</text></g><g class="relationship" transform="translate(18.9874424179448 -116.46430311829494) rotate(446.81593638523333)"><path class="outline" fill="#A5ABB6" stroke="none" d="M 25 0.5 L 34.079028039824024 0.5 L 34.079028039824024 -0.5 L 25 -0.5 Z M 79.64152803982402 0.5 L 88.72055607964805 0.5 L 88.72055607964805 3.5 L 95.72055607964805 0 L 88.72055607964805 -3.5 L 88.72055607964805 -0.5 L 79.64152803982402 -0.5 Z"/><text text-anchor="middle" pointer-events="none" font-size="8px" fill="#000000" x="56.860278039824024" y="3" font-family="sans-serif">ACTED_IN</text></g></g><g class="layer nodes"><g class="node" transform="translate(192.24167965074494,210.49168013987406)"><circle class="outline" cx="0" cy="0" r="25" fill="#57C7E3" stroke="#23b3d7" stroke-width="2px"/><text text-anchor="middle" pointer-events="none" font-family="sans-serif" dy="1.5625" font-size="25" fill="#2A2C34"/><text text-anchor="middle" pointer-events="none" x="0" y="5" font-size="10px" fill="#2A2C34" font-family="sans-serif"> Somethi…</text></g><g class="node" transform="translate(156.38292698945398,84.62744431301229)"><circle class="outline" cx="0" cy="0" r="25" fill="#F79767" stroke="#f36924" stroke-width="2px"/><text text-anchor="middle" pointer-events="none" font-family="sans-serif" dy="1.5625" font-size="25" fill="#FFFFFF"/><text text-anchor="middle" pointer-events="none" font-family="sans-serif" dy="1.5625" font-size="25" fill="#FFFFFF"/><text text-anchor="middle" pointer-events="none" x="0" y="0" font-size="10px" fill="#FFFFFF" font-family="sans-serif"> Keanu</text><text text-anchor="middle" pointer-events="none" x="0" y="10" font-size="10px" fill="#FFFFFF" font-family="sans-serif"> Reeves</text></g><g class="node" transform="translate(261.20850634565954,158.15700729393518)"><circle class="outline" cx="0" cy="0" r="25" fill="#57C7E3" stroke="#23b3d7" stroke-width="2px"/><text text-anchor="middle" pointer-events="none" font-family="sans-serif" dy="1.5625" font-size="25" fill="#2A2C34"/><text text-anchor="middle" pointer-events="none" font-family="sans-serif" dy="1.5625" font-size="25" fill="#2A2C34"/><text text-anchor="middle" pointer-events="none" x="0" y="0" font-size="10px" fill="#2A2C34" font-family="sans-serif"> The</text><text text-anchor="middle" pointer-events="none" x="0" y="10" font-size="10px" fill="#2A2C34" font-family="sans-serif"> Replac…</text></g><g class="node" transform="translate(282.2129913983835,72.20392173396355)"><circle class="outline" cx="0" cy="0" r="25" fill="#57C7E3" stroke="#23b3d7" stroke-width="2px"/><text text-anchor="middle" pointer-events="none" font-family="sans-serif" dy="1.5625" font-size="25" fill="#2A2C34"/><text text-anchor="middle" pointer-events="none" font-family="sans-serif" dy="1.5625" font-size="25" fill="#2A2C34"/><text text-anchor="middle" pointer-events="none" x="0" y="0" font-size="10px" fill="#2A2C34" font-family="sans-serif"> Johnny</text><text text-anchor="middle" pointer-events="none" x="0" y="10" font-size="10px" fill="#2A2C34" font-family="sans-serif"> Mnemo…</text></g><g class="node" transform="translate(239.2275413803695,-12.480842977961881)"><circle class="outline" cx="0" cy="0" r="25" fill="#57C7E3" stroke="#23b3d7" stroke-width="2px"/><text text-anchor="middle" pointer-events="none" font-family="sans-serif" dy="1.5625" font-size="25" fill="#2A2C34"/><text text-anchor="middle" pointer-events="none" font-family="sans-serif" dy="1.5625" font-size="25" fill="#2A2C34"/><text text-anchor="middle" pointer-events="none" font-family="sans-serif" dy="1.5625" font-size="25" fill="#2A2C34"/><text text-anchor="middle" pointer-events="none" x="0" y="-5" font-size="10px" fill="#2A2C34" font-family="sans-serif"> The</text><text text-anchor="middle" pointer-events="none" x="0" y="5" font-size="10px" fill="#2A2C34" font-family="sans-serif"> Devil's</text><text text-anchor="middle" pointer-events="none" x="0" y="15" font-size="10px" fill="#2A2C34" font-family="sans-serif"> Advoc…</text></g><g class="node" transform="translate(57.648029595693224,187.18158764217216)"><circle class="outline" cx="0" cy="0" r="25" fill="#57C7E3" stroke="#23b3d7" stroke-width="2px"/><text text-anchor="middle" pointer-events="none" font-family="sans-serif" dy="1.5625" font-size="25" fill="#2A2C34"/><text text-anchor="middle" pointer-events="none" font-family="sans-serif" dy="1.5625" font-size="25" fill="#2A2C34"/><text text-anchor="middle" pointer-events="none" font-family="sans-serif" dy="1.5625" font-size="25" fill="#2A2C34"/><text text-anchor="middle" pointer-events="none" x="0" y="-5" font-size="10px" fill="#2A2C34" font-family="sans-serif"> The</text><text text-anchor="middle" pointer-events="none" x="0" y="5" font-size="10px" fill="#2A2C34" font-family="sans-serif"> Matrix</text><text text-anchor="middle" pointer-events="none" x="0" y="15" font-size="10px" fill="#2A2C34" font-family="sans-serif"> Revol…</text></g><g class="node" transform="translate(84.98934929139364,10.927483805571063)"><circle class="outline" cx="0" cy="0" r="25" fill="#57C7E3" stroke="#23b3d7" stroke-width="2px"/><text text-anchor="middle" pointer-events="none" font-family="sans-serif" dy="1.5625" font-size="25" fill="#2A2C34"/><text text-anchor="middle" pointer-events="none" font-family="sans-serif" dy="1.5625" font-size="25" fill="#2A2C34"/><text text-anchor="middle" pointer-events="none" font-family="sans-serif" dy="1.5625" font-size="25" fill="#2A2C34"/><text text-anchor="middle" pointer-events="none" x="0" y="-5" font-size="10px" fill="#2A2C34" font-family="sans-serif"> The</text><text text-anchor="middle" pointer-events="none" x="0" y="5" font-size="10px" fill="#2A2C34" font-family="sans-serif"> Matrix</text><text text-anchor="middle" pointer-events="none" x="0" y="15" font-size="10px" fill="#2A2C34" font-family="sans-serif"> Reloa…</text></g><g class="node" transform="translate(25.692720132559533,4.069890830763935)"><circle class="outline" cx="0" cy="0" r="25" fill="#57C7E3" stroke="#23b3d7" stroke-width="2px"/><text text-anchor="middle" pointer-events="none" font-family="sans-serif" dy="1.5625" font-size="25" fill="#2A2C34"/><text text-anchor="middle" pointer-events="none" font-family="sans-serif" dy="1.5625" font-size="25" fill="#2A2C34"/><text text-anchor="middle" pointer-events="none" x="0" y="0" font-size="10px" fill="#2A2C34" font-family="sans-serif"> The</text><text text-anchor="middle" pointer-events="none" x="0" y="10" font-size="10px" fill="#2A2C34" font-family="sans-serif"> Matrix</text></g><g class="node" transform="translate(89.35188350884717,101.58713407125322)"><circle class="outline" cx="0" cy="0" r="25" fill="#F79767" stroke="#f36924" stroke-width="2px"/><text text-anchor="middle" pointer-events="none" font-family="sans-serif" dy="1.5625" font-size="25" fill="#FFFFFF"/><text text-anchor="middle" pointer-events="none" x="0" y="5" font-size="10px" fill="#FFFFFF" font-family="sans-serif"> Carrie-A…</text></g><g class="node" transform="translate(15.492039382005576,103.6089683910747)"><circle class="outline" cx="0" cy="0" r="25" fill="#F79767" stroke="#f36924" stroke-width="2px"/><text text-anchor="middle" pointer-events="none" font-family="sans-serif" dy="1.5625" font-size="25" fill="#FFFFFF"/><text text-anchor="middle" pointer-events="none" font-family="sans-serif" dy="1.5625" font-size="25" fill="#FFFFFF"/><text text-anchor="middle" pointer-events="none" x="0" y="0" font-size="10px" fill="#FFFFFF" font-family="sans-serif"> Laurence</text><text text-anchor="middle" pointer-events="none" x="0" y="10" font-size="10px" fill="#FFFFFF" font-family="sans-serif"> Fishbur…</text></g><g class="node" transform="translate(-156.98757505770834,66.97443203716116)"><circle class="outline" cx="0" cy="0" r="25" fill="#57C7E3" stroke="#23b3d7" stroke-width="2px"/><text text-anchor="middle" pointer-events="none" font-family="sans-serif" dy="1.5625" font-size="25" fill="#2A2C34"/><text text-anchor="middle" pointer-events="none" font-family="sans-serif" dy="1.5625" font-size="25" fill="#2A2C34"/><text text-anchor="middle" pointer-events="none" x="0" y="0" font-size="10px" fill="#2A2C34" font-family="sans-serif"> Cloud</text><text text-anchor="middle" pointer-events="none" x="0" y="10" font-size="10px" fill="#2A2C34" font-family="sans-serif"> Atlas</text></g><g class="node" transform="translate(-41.64815644664414,85.5355871552169)"><circle class="outline" cx="0" cy="0" r="25" fill="#F79767" stroke="#f36924" stroke-width="2px"/><text text-anchor="middle" pointer-events="none" font-family="sans-serif" dy="1.5625" font-size="25" fill="#FFFFFF"/><text text-anchor="middle" pointer-events="none" font-family="sans-serif" dy="1.5625" font-size="25" fill="#FFFFFF"/><text text-anchor="middle" pointer-events="none" x="0" y="0" font-size="10px" fill="#FFFFFF" font-family="sans-serif"> Hugo</text><text text-anchor="middle" pointer-events="none" x="0" y="10" font-size="10px" fill="#FFFFFF" font-family="sans-serif"> Weaving</text></g><g class="node" transform="translate(-109.92256285389543,186.9683732782372)"><circle class="outline" cx="0" cy="0" r="25" fill="#57C7E3" stroke="#23b3d7" stroke-width="2px"/><text text-anchor="middle" pointer-events="none" font-family="sans-serif" dy="1.5625" font-size="25" fill="#2A2C34"/><text text-anchor="middle" pointer-events="none" font-family="sans-serif" dy="1.5625" font-size="25" fill="#2A2C34"/><text text-anchor="middle" pointer-events="none" x="0" y="0" font-size="10px" fill="#2A2C34" font-family="sans-serif"> V for</text><text text-anchor="middle" pointer-events="none" x="0" y="10" font-size="10px" fill="#2A2C34" font-family="sans-serif"> Vendetta</text></g><g class="node" transform="translate(18.9874424179448,-116.46430311829494)"><circle class="outline" cx="0" cy="0" r="25" fill="#F79767" stroke="#f36924" stroke-width="2px"/><text text-anchor="middle" pointer-events="none" font-family="sans-serif" dy="1.5625" font-size="25" fill="#FFFFFF"/><text text-anchor="middle" pointer-events="none" font-family="sans-serif" dy="1.5625" font-size="25" fill="#FFFFFF"/><text text-anchor="middle" pointer-events="none" x="0" y="0" font-size="10px" fill="#FFFFFF" font-family="sans-serif"> Emil</text><text text-anchor="middle" pointer-events="none" x="0" y="10" font-size="10px" fill="#FFFFFF" font-family="sans-serif"> Eifrem</text></g></g></svg>