<svg xmlns="http://www.w3.org/2000/svg" width="237.72666931152344" height="246.57119750976562" viewBox="-9.521411895751953 -10.886102676391602 237.72666931152344 246.57119750976562"><title>Neo4j Graph Visualization</title><desc>Created using Neo4j (http://www.neo4j.com/)</desc><g class="layer relationships"><g class="relationship" transform="translate(125.3646574310282 127.0321188351439) rotate(407.6364381190685)"><path class="outline" fill="#A5ABB6" stroke="none" d="M 25 0.5 L 27.619605140132784 0.5 L 27.619605140132784 -0.5 L 25 -0.5 Z M 73.18210514013279 0.5 L 75.80171028026557 0.5 L 75.80171028026557 3.5 L 82.80171028026557 0 L 75.80171028026557 -3.5 L 75.80171028026557 -0.5 L 73.18210514013279 -0.5 Z"/><text text-anchor="middle" pointer-events="none" font-size="8px" fill="#000000" x="50.400855140132784" y="3" font-family="sans-serif">ACTED_IN</text></g><g class="relationship" transform="translate(125.3646574310282 127.0321188351439) rotate(310.8385939719228)"><path class="outline" fill="#A5ABB6" stroke="none" d="M 25 0.5 L 30.177824645620355 0.5 L 30.177824645620355 -0.5 L 25 -0.5 Z M 75.74032464562035 0.5 L 80.91814929124071 0.5 L 80.91814929124071 3.5 L 87.91814929124071 0 L 80.91814929124071 -3.5 L 80.91814929124071 -0.5 L 75.74032464562035 -0.5 Z"/><text text-anchor="middle" pointer-events="none" font-size="8px" fill="#000000" x="52.959074645620355" y="3" font-family="sans-serif">ACTED_IN</text></g><g class="relationship" transform="translate(125.3646574310282 127.0321188351439) rotate(254.13719422110876)"><path class="outline" fill="#A5ABB6" stroke="none" d="M 25 0.5 L 30.33382193592343 0.5 L 30.33382193592343 -0.5 L 25 -0.5 Z M 75.89632193592342 0.5 L 81.23014387184686 0.5 L 81.23014387184686 3.5 L 88.23014387184686 0 L 81.23014387184686 -3.5 L 81.23014387184686 -0.5 L 75.89632193592342 -0.5 Z"/><text text-anchor="middle" pointer-events="none" font-size="8px" fill="#000000" x="53.11507193592343" y="3" transform="rotate(180 53.11507193592343 0)" font-family="sans-serif">ACTED_IN</text></g><g class="relationship" transform="translate(125.3646574310282 127.0321188351439) rotate(200.75737746713173)"><path class="outline" fill="#A5ABB6" stroke="none" d="M 25 0.5 L 30.33689217241693 0.5 L 30.33689217241693 -0.5 L 25 -0.5 Z M 75.89939217241692 0.5 L 81.23628434483386 0.5 L 81.23628434483386 3.5 L 88.23628434483386 0 L 81.23628434483386 -3.5 L 81.23628434483386 -0.5 L 75.89939217241692 -0.5 Z"/><text text-anchor="middle" pointer-events="none" font-size="8px" fill="#000000" x="53.11814217241693" y="3" transform="rotate(180 53.11814217241693 0)" font-family="sans-serif">ACTED_IN</text></g><g class="relationship" transform="translate(125.3646574310282 127.0321188351439) rotate(504.11660700421896)"><path class="outline" fill="#A5ABB6" stroke="none" d="M 25 0.5 L 30.19147346344213 0.5 L 30.19147346344213 -0.5 L 25 -0.5 Z M 75.75397346344212 0.5 L 80.94544692688426 0.5 L 80.94544692688426 3.5 L 87.94544692688426 0 L 80.94544692688426 -3.5 L 80.94544692688426 -0.5 L 75.75397346344212 -0.5 Z"/><text text-anchor="middle" pointer-events="none" font-size="8px" fill="#000000" x="52.97272346344213" y="3" transform="rotate(180 52.97272346344213 0)" font-family="sans-serif">ACTED_IN</text></g></g><g class="layer nodes"><g class="node" transform="translate(125.3646574310282,127.0321188351439)"><circle class="outline" cx="0" cy="0" r="25" fill="#F79767" stroke="#f36924" stroke-width="2px"/><text text-anchor="middle" pointer-events="none" font-family="sans-serif" dy="1.5625" font-size="25" fill="#FFFFFF"/><text text-anchor="middle" pointer-events="none" font-family="sans-serif" dy="1.5625" font-size="25" fill="#FFFFFF"/><text text-anchor="middle" pointer-events="none" x="0" y="0" font-size="10px" fill="#FFFFFF" font-family="sans-serif"> Hugo</text><text text-anchor="middle" pointer-events="none" x="0" y="10" font-size="10px" fill="#FFFFFF" font-family="sans-serif"> Weaving</text></g><g class="node" transform="translate(198.00496624409857,206.68508032994387)"><circle class="outline" cx="0" cy="0" r="25" fill="#57C7E3" stroke="#23b3d7" stroke-width="2px"/><text text-anchor="middle" pointer-events="none" font-family="sans-serif" dy="1.5625" font-size="25" fill="#2A2C34"/><text text-anchor="middle" pointer-events="none" font-family="sans-serif" dy="1.5625" font-size="25" fill="#2A2C34"/><text text-anchor="middle" pointer-events="none" x="0" y="0" font-size="10px" fill="#2A2C34" font-family="sans-serif"> Cloud</text><text text-anchor="middle" pointer-events="none" x="0" y="10" font-size="10px" fill="#2A2C34" font-family="sans-serif"> Atlas</text></g><g class="node" transform="translate(199.2052636100033,41.60335717678653)"><circle class="outline" cx="0" cy="0" r="25" fill="#57C7E3" stroke="#23b3d7" stroke-width="2px"/><text text-anchor="middle" pointer-events="none" font-family="sans-serif" dy="1.5625" font-size="25" fill="#2A2C34"/><text text-anchor="middle" pointer-events="none" font-family="sans-serif" dy="1.5625" font-size="25" fill="#2A2C34"/><text text-anchor="middle" pointer-events="none" x="0" y="0" font-size="10px" fill="#2A2C34" font-family="sans-serif"> V for</text><text text-anchor="middle" pointer-events="none" x="0" y="10" font-size="10px" fill="#2A2C34" font-family="sans-serif"> Vendetta</text></g><g class="node" transform="translate(94.41491468624668,18.113897653970646)"><circle class="outline" cx="0" cy="0" r="25" fill="#57C7E3" stroke="#23b3d7" stroke-width="2px"/><text text-anchor="middle" pointer-events="none" font-family="sans-serif" dy="1.5625" font-size="25" fill="#2A2C34"/><text text-anchor="middle" pointer-events="none" font-family="sans-serif" dy="1.5625" font-size="25" fill="#2A2C34"/><text text-anchor="middle" pointer-events="none" font-family="sans-serif" dy="1.5625" font-size="25" fill="#2A2C34"/><text text-anchor="middle" pointer-events="none" x="0" y="-5" font-size="10px" fill="#2A2C34" font-family="sans-serif"> The</text><text text-anchor="middle" pointer-events="none" x="0" y="5" font-size="10px" fill="#2A2C34" font-family="sans-serif"> Matrix</text><text text-anchor="middle" pointer-events="none" x="0" y="15" font-size="10px" fill="#2A2C34" font-family="sans-serif"> Revol…</text></g><g class="node" transform="translate(19.478587518784863,86.89988377698172)"><circle class="outline" cx="0" cy="0" r="25" fill="#57C7E3" stroke="#23b3d7" stroke-width="2px"/><text text-anchor="middle" pointer-events="none" font-family="sans-serif" dy="1.5625" font-size="25" fill="#2A2C34"/><text text-anchor="middle" pointer-events="none" font-family="sans-serif" dy="1.5625" font-size="25" fill="#2A2C34"/><text text-anchor="middle" pointer-events="none" font-family="sans-serif" dy="1.5625" font-size="25" fill="#2A2C34"/><text text-anchor="middle" pointer-events="none" x="0" y="-5" font-size="10px" fill="#2A2C34" font-family="sans-serif"> The</text><text text-anchor="middle" pointer-events="none" x="0" y="5" font-size="10px" fill="#2A2C34" font-family="sans-serif"> Matrix</text><text text-anchor="middle" pointer-events="none" x="0" y="15" font-size="10px" fill="#2A2C34" font-family="sans-serif"> Reloa…</text></g><g class="node" transform="translate(33.854950158738916,193.23368570824408)"><circle class="outline" cx="0" cy="0" r="25" fill="#57C7E3" stroke="#23b3d7" stroke-width="2px"/><text text-anchor="middle" pointer-events="none" font-family="sans-serif" dy="1.5625" font-size="25" fill="#2A2C34"/><text text-anchor="middle" pointer-events="none" font-family="sans-serif" dy="1.5625" font-size="25" fill="#2A2C34"/><text text-anchor="middle" pointer-events="none" x="0" y="0" font-size="10px" fill="#2A2C34" font-family="sans-serif"> The</text><text text-anchor="middle" pointer-events="none" x="0" y="10" font-size="10px" fill="#2A2C34" font-family="sans-serif"> Matrix</text></g></g></svg>